<?xml version="1.0" encoding="UTF-8"?>
<!DOCTYPE svg PUBLIC "-//W3C//DTD SVG 1.1//EN" "http://www.w3.org/Graphics/SVG/1.1/DTD/svg11.dtd">
<!-- Creator: CorelDRAW 2020 (64-Bit) -->
<svg xmlns="http://www.w3.org/2000/svg" xml:space="preserve" width="222.368mm" height="55.0338mm" version="1.1" style="shape-rendering:geometricPrecision; text-rendering:geometricPrecision; image-rendering:optimizeQuality; fill-rule:evenodd; clip-rule:evenodd"
viewBox="0 0 2301791 569669"
 xmlns:xlink="http://www.w3.org/1999/xlink"
 xmlns:xodm="http://www.corel.com/coreldraw/odm/2003">
 <defs>
  <style type="text/css">
   <![CDATA[
    .fil0 {fill:url(#id0)}
   ]]>
  </style>
  <linearGradient id="id0" gradientUnits="userSpaceOnUse" x1="0" y1="284834" x2="2301791" y2="284834">
   <stop offset="0" style="stop-opacity:1; stop-color:#E73D5D"/>
   <stop offset="1" style="stop-opacity:1; stop-color:#EF8641"/>
  </linearGradient>
 </defs>
 <g id="图层_x0020_1">
  <metadata id="CorelCorpID_0Corel-Layer"/>
  <path class="fil0" d="M618071 458798l-2882 29677c-341,4484 -759,8962 -1109,13445 -752,9664 -959,19477 -2640,29036 -1040,5919 -3859,11225 -9057,14469 -5278,3294 -11726,3636 -17683,2363 -6952,-1486 -13516,-5154 -18933,-9691 -3842,-3217 -6724,-7027 -8520,-11722 -1865,-4872 -2337,-10104 -2421,-15279 -94,-5772 238,-11562 238,-17340 0,-6664 366,-13367 897,-20008 599,-7495 1430,-14980 2441,-22430 1071,-7892 2348,-15771 3884,-23586 1338,-6807 2871,-13653 4820,-20312 3554,-12150 10726,-48359 20391,-55247 289,-206 595,-407 917,-602 -2682,-356 -5278,-1247 -7592,-2770 -5532,-3642 -7852,-9756 -7852,-16191 0,-11503 20428,-21906 29288,-25882 5420,-2432 11083,-4563 16799,-6186 4399,-1249 9569,-2439 14158,-2439 33752,0 71984,3512 99488,25131 23550,18510 36855,42788 36855,73164 0,23122 -2530,38100 -19663,55142 -2757,2741 -4731,5685 -7759,7675l11384 15655c25,35 46,65 70,100 4421,6605 8246,13507 12356,20297 6681,11037 21517,32847 21517,45491 0,13513 -11746,26673 -25554,26673 -6101,0 -9859,-5544 -12888,-10062l-48748 -65144c-2257,-2827 -4452,-6165 -7327,-8476 -3594,842 -7193,1695 -10802,2457 -2683,568 -5366,1068 -8095,1359 -2721,291 -5449,374 -8183,404 -4167,47 -8341,7 -12508,7 -15917,0 -32715,-13166 -35287,-29178zm1789 -18422c3527,-6198 10757,-11092 16421,-13923 5690,-2843 12902,-5252 19315,-5252 16463,0 30659,394 45715,6931 1291,-2031 2743,-3999 4087,-5950 2146,-3117 4133,-6281 5631,-9768 4204,-9785 3268,-19506 -348,-29342 -11559,-31444 -59021,-41176 -88438,-38495 -2986,271 -5923,732 -8830,1467 5808,175 11933,1566 15680,5794 3712,4188 3848,9702 2543,14882 -2179,8650 -3967,17425 -5558,26200 -1526,8406 -2866,16851 -4069,25310l-2151 22148zm-161989 -202032c1416,763 2791,1626 3885,2321 3461,2197 6834,4599 10133,7033 3140,2316 6239,4694 9285,7130 2087,1669 4256,3402 6215,5219 2481,2302 4513,4824 7224,6899 5078,3886 9164,9316 13611,13917 5065,5241 9692,11484 13781,17506 5215,7682 9977,15785 14127,24089 6353,12712 12968,29344 12968,43723l0 19025c0,50578 -27853,94735 -67613,124223 -31598,23435 -73109,40228 -111645,47973 -22374,4497 -44765,8548 -67531,10450 -22379,1869 -45042,1818 -67488,1818 -17734,0 -36210,-1895 -53501,-5825 -22957,-5218 -50139,-15645 -63168,-36564 -7013,-11261 -8829,-23883 -6858,-36886 1845,-12169 564,-24522 2413,-36753 590,-3899 824,-8056 1070,-11994 350,-5600 614,-11207 886,-16811 239,-4926 476,-9853 768,-14776 234,-3953 484,-7943 918,-11878l1151 -15915c-1804,-1393 -3343,-2943 -4851,-4752 -1698,-2039 -3226,-4138 -5065,-6069 -5118,-5373 -10116,-11117 -14802,-16863 -3644,-4470 -13212,-16139 -13212,-21974 0,-20290 12171,-33125 24047,-48008 2305,-2889 5825,-7019 6974,-10575 920,-2846 807,-6505 743,-9463 -155,-7178 -429,-14290 -429,-21481 0,-13559 34,-27094 -1131,-40619 -1654,-19183 -6132,-44825 -22566,-57327l-35516 25028c-5448,4254 -10652,8933 -15552,13807 -5302,5274 -10446,10959 -14909,16965l-16414 24871c-784,1187 -2198,1700 -3561,1291 -1362,-409 -2260,-1616 -2260,-3038l0 -54444c0,-253 25,-469 82,-714 966,-4178 4358,-7143 7292,-10047 22,-23 40,-40 63,-61l17915 -16776c25,-23 46,-42 71,-64 8081,-7124 16764,-13830 25370,-20307 10819,-8144 21848,-16038 32991,-23733 11554,-7981 23270,-15779 35175,-23229 5147,-3221 10339,-6381 15597,-9416 4279,-2470 8625,-4883 13054,-7074 17093,-8458 34036,-17343 51378,-25277 10607,-4854 21347,-9292 32345,-13186 12643,-4477 25507,-8212 38534,-11393 24642,-6017 50202,-8830 75563,-8267 36527,811 73205,8669 106040,24928 25838,12794 55104,37905 55104,69246 0,48114 -5951,80824 -32972,121508 -13,21 -26,38 -39,59l-15693 22533zm1423052 99438c15156,1366 32814,5663 42355,15205 14004,14005 15718,42422 15718,61314 0,38399 -28621,73866 -57855,95898 -32094,24188 -71625,36550 -111659,37071 -2289,8363 -11013,16291 -17660,20743 -1091,731 -2440,731 -3531,0 -5935,-3974 -14918,-21074 -17339,-28005 -1225,-3503 -2514,-7468 -2986,-11165 -128,-1007 -188,-2006 -163,-3022 14,-585 69,-1170 81,-1752 23,-1122 -436,-2173 -892,-3178 -650,-1430 -1419,-2834 -2188,-4203 -1317,-2340 -2705,-4649 -4103,-6942 -5644,-9253 -9043,-19717 -12417,-29952 -2846,-8632 -4672,-17125 -5484,-26177 -770,-8585 -678,-17273 -678,-25886 0,-44425 36373,-89301 75746,-106958 9872,-4426 19680,-7950 30386,-9712 10655,-1755 21675,-1769 32449,-1769 6625,0 13847,1257 20236,2963 8476,2264 23918,7725 26473,17297 244,914 97,1797 -429,2584 -2090,3120 -3926,4715 -6060,5647zm-135532 125477c199,-501 396,-993 587,-1471 1867,-4683 3861,-9326 5889,-13942 1921,-4374 3886,-8731 5891,-13068 1424,-3082 2863,-6179 4384,-9215 3521,-7033 7204,-14018 11045,-20883 2073,-3707 4203,-7390 6432,-11005 1909,-3096 3911,-6204 6097,-9112 4568,-6075 9229,-12120 14510,-17600 5573,-5785 11607,-10635 18417,-14895 1053,-658 2141,-1286 3254,-1886 -7199,2227 -14418,4305 -21234,7634 -21578,10543 -41805,32535 -50018,55175 -3103,8555 -6134,19102 -6374,28255 -117,4459 -244,9033 -58,13492 80,1920 247,3706 609,5592 188,981 388,1952 569,2930zm-175695 -42956c5827,675 11458,2648 17280,3066 5432,390 10896,821 16336,1070 2411,110 4810,175 7219,-22 2147,-175 4310,-499 6450,-764 3371,-416 6748,-764 10131,-1069 -226,-10982 -1644,-21770 -2206,-32697l-3363 -52591c-3,-42 -4,-79 -5,-121 -248,-9704 -3848,-18309 2115,-27159 608,-901 1287,-1792 1941,-2660 687,-912 1440,-1958 2207,-2798 3656,-4008 8200,-6475 13508,-7517 2826,-555 5722,-679 8594,-531 4310,222 8548,1048 12751,1991 2945,659 6342,1600 9331,1849 1583,131 2809,1386 2905,2971l2281 38005c4,53 5,99 6,152 129,11015 924,21904 1546,32890 351,6195 606,12384 610,18592l4547 62364c625,4517 1389,9011 2142,13507 886,5293 1743,10581 2358,15913 688,5975 1062,11947 1062,17964 0,5896 316,11753 203,17668 -123,6445 -567,18094 -5507,22822 -6306,6040 -19003,5936 -26987,4361 -5663,-1118 -11574,-3328 -16109,-6973 -6401,-5146 -7406,-17849 -7800,-25469 -178,-3470 -241,-6943 -290,-10416 -40,-2841 -54,-5707 -205,-8544 -84,-1580 -281,-3000 -554,-4550 -406,-2301 -590,-4374 -619,-6720 -35,-2857 -1,-5714 24,-8571 -5278,774 -10909,830 -16084,780 -5511,-52 -11025,-312 -16534,-312 -7228,0 -14026,-986 -21170,-1713 -1956,-200 -3912,-361 -5872,-450l0 58301c0,2062 -507,4029 -1593,5787 -4086,6620 -14638,7690 -21659,7708 -3931,9 -7931,-301 -11818,-892 -2612,-397 -5882,-990 -8324,-2010 -3144,-1314 -7339,-2955 -8624,-6408 -157,-422 -268,-887 -446,-1296 -9466,-21717 -7723,-50728 -7603,-74421 -5022,-1914 -10496,-5965 -14245,-9168 -15359,-13117 -15964,-39303 -15964,-58064 0,-1144 556,-2127 1536,-2717 980,-590 2110,-622 3121,-87 5013,2653 10119,5287 15315,7569 2673,1174 5328,2171 8065,3170 1662,606 3276,1237 4875,1912 36,-212 75,-425 116,-643 383,-2043 569,-3732 587,-5831 0,-55 2,-100 5,-155l4434 -77258c80,-1391 1003,-2524 2349,-2883 1239,-331 2339,-906 3439,-1552 1691,-995 3251,-2013 5072,-2792 11981,-5121 31724,-2499 43031,3484 1066,564 1689,1599 1689,2805 0,9357 -2165,18063 -3456,27232 -2034,14456 -2339,29391 -2347,43975 -6,9972 171,19944 203,29916zm582561 -49289c-6047,-3119 -12199,-6036 -18291,-9068 -5527,-2750 -12076,-6257 -14800,-12117 -1816,-3907 -1866,-8515 -1866,-12746 0,-800 137,-1589 412,-2340 2072,-5674 11182,-7111 16375,-7759 3967,-496 7901,-679 11882,-937 9529,-619 19092,-2807 28442,-4664 7697,-1528 15412,-3066 23147,-4388 5559,-950 11121,-1760 16739,-2274 5620,-514 11246,-733 16886,-836 7855,-146 15724,-117 23579,-117 7468,0 15835,300 22458,4153 3405,1980 6109,4699 8503,7797 3512,4545 7436,8819 10804,13461 2846,3922 5763,8793 5191,13842 -506,4479 -3550,7708 -7175,10077 -5354,3500 -12674,5724 -18823,7302 -11437,2935 -22719,2364 -34410,2304 -3424,-18 -6584,262 -9972,641 -2226,248 -4419,454 -6659,521 -5995,180 -12002,-363 -17985,-117 -1273,52 -2453,383 -3539,1055 -4539,2810 -6103,10550 -6522,15437 -302,3520 -231,7425 352,11031 1170,101 2340,203 3511,298 4678,383 9283,609 13979,608 5351,-1 10691,-137 16038,-316 4093,-136 8206,-314 12300,-305 5357,10 12203,210 16339,4110 3812,3597 4378,9283 4378,14231 0,1189 23,2379 42,3568 92,5551 257,12435 -3280,17067 -2668,3491 -6674,4803 -10930,4980 -5125,213 -10291,164 -15419,75 -5886,-102 -11770,-284 -17655,-432 -7477,-189 -14988,-357 -22465,-194 -4710,104 -10167,279 -14947,1166l-6839 21059c-1055,3248 -2148,6487 -3302,9702 -927,2584 -1898,5202 -2956,7772 4604,-569 9080,-1770 13663,-2687 11921,-2386 23845,-4397 35952,-5564 12357,-1190 24724,-1492 37131,-1492 10336,0 18840,12601 18840,22196 0,3343 47,7401 -1893,10280 -873,1295 -2028,2260 -3274,3175 -1461,1073 -2966,2079 -4423,3162 -51,38 -95,69 -148,104l-33738 22217c-43,28 -81,52 -126,79 -25406,15076 -43367,18991 -72598,18991 -7400,0 -14472,-1971 -20877,-5656 -16272,-9362 -27058,-29247 -27058,-47875 0,-6258 -144,-13161 1060,-19318 520,-2664 1297,-5247 2160,-7816 1206,-3596 2537,-7164 3824,-10732 1595,-4422 3094,-8840 4862,-13202 1242,-3066 3089,-7603 3462,-10912 80,-708 168,-1418 -302,-1994 -864,-1058 -1622,-1671 -2349,-2943 -1203,-2109 -1527,-4549 -1527,-6943 0,-3329 -79,-6852 251,-10161 254,-2544 805,-5030 2379,-7109 2199,-2904 5873,-4206 9226,-5240 1947,-600 3863,-1051 5842,-1509 670,-156 1765,-383 2355,-748 1031,-640 2154,-3386 2580,-4389l11206 -27559zm-1015348 51555c-1958,4114 -2324,11440 -2488,14644 -249,4851 -228,9955 -885,14753 -390,2850 -660,5713 -846,8583 -630,9751 -358,19592 -661,29365 -390,12596 -1695,24721 -4326,37063 -1425,6686 -3986,13788 -8459,19067 -3453,4076 -8077,7015 -13535,7186 -5134,160 -9802,-2207 -13449,-5688 -4547,-4339 -7599,-10342 -9558,-16247 -1583,-4771 -2741,-9669 -3537,-14630 -3341,-20831 -326,-42287 2534,-62995 1915,-13864 4280,-27531 7142,-41230 1940,-9281 4449,-18635 7257,-27689 1596,-5146 3327,-10272 5285,-15292 1672,-4282 3552,-8665 5838,-12659 3729,-6511 9393,-13172 17582,-13008 13712,274 25729,20145 32949,30125 4005,5536 7940,10980 11502,16822 6927,11365 14177,22612 21453,33757 4168,6384 8375,12746 12659,19051 3292,4845 6633,9727 10151,14411 2088,2780 4197,5543 6252,8349 616,842 1212,1855 1847,2767 229,-1440 477,-2879 707,-4333 682,-4309 911,-8021 231,-12367 -547,-3498 -659,-7123 -724,-10658 -77,-4158 30,-8669 -538,-12778 -1544,-11144 -3364,-22300 -5861,-33274 -1756,-7716 -3882,-15230 -6268,-22770 -1922,-6074 -3938,-12116 -5828,-18201 -2445,-7873 -4677,-15789 -6706,-23780 -1646,-6483 -4809,-14009 -4809,-20689 0,-5374 929,-12571 6569,-14995 11459,-4925 30742,16457 36756,24800 17260,23937 29383,53762 35631,82512 7654,35218 7922,75923 -8770,108717 -7659,15049 -20902,29312 -39037,29312 -13436,0 -25197,-12625 -32753,-22484 -4469,-5830 -8473,-12154 -12222,-18466 -4262,-7171 -8264,-14511 -12151,-21893 -6676,-12678 -12959,-25543 -19507,-38283 -2317,-4507 -4677,-9074 -7261,-13433 -379,-640 -1270,-2129 -2167,-3444zm-10530 -283326c7070,388 14193,2904 20242,6432 10194,5947 20211,16640 20211,29142l0 8953c0,13437 -8002,27193 -15919,37564 -10291,13480 -23606,25648 -37163,35781 -12099,9042 -25429,17240 -39230,23409 -10894,4870 -24147,9373 -36196,9373 -12571,0 -32543,-138 -44871,-4883l-6257 8118c-3375,4547 -8197,8698 -14252,8005 -8514,-975 -14019,-10893 -16751,-18043 -1588,-4156 -3139,-8992 -3233,-13481 -57,-2735 453,-4557 1079,-7130 212,-874 352,-1685 327,-2588 -29,-1030 -1550,-3273 -2116,-4103 -1907,-2793 -3928,-5450 -5747,-8315 -5723,-9017 -8712,-18259 -8712,-29016 0,-16962 8897,-33431 19240,-46362 12378,-15475 28861,-28684 46070,-38416 19559,-11058 42778,-19112 65438,-19112 20748,0 46493,5542 57841,24671zm-214346 343136l-44930 0c-7928,0 -10729,3838 -13391,10719 -2426,6273 -4380,12873 -6421,19285 -2584,8117 -5263,16194 -8415,24111 -1446,3631 -2575,8134 -5237,11059 -3203,3523 -7890,4209 -12419,4209 -6327,0 -14719,1212 -19661,-3591 -878,-854 -1880,-2355 -2598,-3370 -716,-1014 -1520,-2123 -2138,-3195 -9468,-16448 -6135,-38474 654,-55291 22,-55 42,-100 67,-153l9304 -19949c-233,-9059 -5116,-16071 -14795,-16287 -907,-21 -1680,-376 -2287,-1050 -608,-675 -879,-1481 -804,-2386 214,-2575 282,-5178 523,-7741 191,-2042 561,-4115 2132,-5583 2327,-2177 6272,-1723 9201,-1527 6109,411 12024,752 18163,752 83,0 149,-6 220,-48 914,-533 2387,-4545 2899,-5608 5223,-10847 10742,-21514 16448,-32114 5187,-9634 10486,-19207 15690,-28831 3341,-6180 6771,-12217 11058,-17798 1578,-2054 3237,-4045 4890,-6039 2223,-2682 4428,-5371 6592,-8103 2327,-2937 4749,-5753 7195,-8588 1688,-1957 3402,-3947 4851,-6092 1736,-2571 2931,-5216 3903,-8158 1784,-5401 4450,-7316 10184,-7316 5699,0 11310,1004 15802,4750 3473,2895 5649,6900 7367,11012 2108,5045 3707,10455 5438,15647 4185,12561 8705,25355 11361,38344 1239,6058 2237,12225 3209,18332 1321,8307 2537,16633 3670,24967 1161,8552 2242,17129 3130,25716 367,3558 703,7124 960,10692 194,2700 358,5439 358,8146 0,5377 102,10765 176,16143 104,7497 198,14994 234,22492 40,8273 32,16570 -218,24839 -99,3270 -234,6551 -489,9812 -176,2247 -393,4692 -905,6889 -333,1430 -1552,2419 -3019,2451 -1336,30 -2848,372 -4185,557 -2192,304 -4301,392 -6497,37 -7021,-1134 -12432,-6456 -16559,-11897 -4089,-5390 -8435,-11340 -10124,-17997 -1125,-4439 -1119,-9108 -1024,-13657 130,-6213 370,-12383 436,-18592zm1100558 -4619l39567 -14929c2119,-843 4207,-1769 6287,-2702 4209,-1886 8554,-3938 12967,-5277 3873,-1176 8458,-1962 12193,75 2668,1454 4215,3963 5030,6823 511,1798 866,3637 1065,5495 1065,9940 -2367,19776 -7322,28255 -5501,9411 -13238,17919 -21426,25067 -8147,7113 -17455,13519 -27154,18325 -7410,3673 -16858,7275 -25231,7275 -8748,0 -17907,-464 -26086,-3856 -9136,-3790 -15429,-10566 -20280,-19032 -11836,-20652 -10522,-42405 -10522,-65335 0,-7492 856,-15104 2037,-22494 1310,-8198 3077,-16347 5078,-24402 3810,-15341 8512,-30521 13605,-45481 2348,-6898 5099,-13628 7620,-20460 6782,-18385 17173,-47005 40859,-47005 1710,0 3353,402 4831,1272 4471,2630 5864,8526 6365,13310 630,6027 150,12573 -564,18579 -698,5876 -1718,11742 -2920,17536 -718,3458 -1495,6953 -2398,10369 -3502,13221 -7268,26381 -10685,39620 -4178,16190 -7434,32320 -10208,48809 -664,3944 -1355,7886 -1971,11837 -471,3024 -918,6099 -1131,9153 -152,2181 -409,7134 1354,8831 1813,1744 6759,838 9044,344zm-967442 -48386c828,6105 1227,12443 1529,18593 255,5191 421,10420 388,15617 -18,2869 215,5475 576,8308 360,2842 602,5515 607,8391 8,5610 -38,11220 -38,16829 0,6591 583,13209 637,19822 76,9370 -538,22364 -7920,29168 -3525,3250 -7948,4542 -12675,4542 -11763,0 -25944,12 -31276,-12771 -1791,-4296 -3226,-9220 -4371,-13727 -1061,-4174 -2216,-9298 -2216,-13605l0 -66026c0,-3724 164,-7473 361,-11192 262,-4904 610,-9806 997,-14701 932,-11778 2096,-23551 3405,-35294 1261,-11311 2657,-22622 4293,-33885 1222,-8410 2528,-17113 4456,-25390 338,-1454 1597,-2453 3090,-2453 8471,0 19834,362 26074,6998 3484,3705 4985,8742 5983,13610 628,3063 1080,6178 1509,9274 526,3783 1015,7570 1562,11350 16,109 25,201 30,311l3002 66230zm-858706 -2272c4080,-1938 8250,-3630 12554,-5097 9809,-3342 20105,-5539 30194,-7878 6077,-1410 12427,-2394 18603,-3255 8272,-1153 16609,-2042 24940,-2638 7583,-541 15252,-857 22856,-682 6125,141 12872,568 18822,2089 6152,1571 10992,4650 11831,11359 188,1500 160,2984 160,4491 0,4257 -4226,6766 -7660,8245 -4151,1789 -8946,2946 -13367,3862 -3806,788 -7648,1425 -11493,1988 -2482,363 -4971,668 -7450,1029 -21836,3181 -96559,12921 -96559,43067 0,1166 202,2294 628,3381 4069,10360 26995,14047 36491,15243 9593,1209 19423,1704 29091,1704 13669,0 27360,-950 40922,-2650 24067,-3017 48225,-8424 71248,-16069 9218,-3062 18170,-6613 27007,-10639 6303,-2870 12511,-5944 18687,-9077 24390,-12370 54578,-38179 64941,-63954 1999,-4971 3342,-10449 4314,-15709 1172,-6336 1858,-12825 2090,-19264 247,-6895 -12,-13982 -1116,-20800 -3967,-24499 -22534,-40145 -42840,-51852 -2913,-1679 -5829,-3363 -8777,-4980 -1968,-1079 -3985,-2159 -6039,-3065 -1375,-606 -3917,-1685 -5465,-1202 -1249,391 -2715,1961 -3583,2886 -2432,2592 -4707,5241 -7230,7766 -11809,11817 -27345,24396 -42316,31852 -14884,7414 -29693,15031 -44631,22331 -8900,4349 -17882,8551 -27248,11812 -8982,3128 -18196,5339 -27483,7349 -15177,3283 -30484,6172 -45713,9218 -3758,752 -7549,1346 -11325,1995 -5856,1007 -19395,3120 -22858,8503 -2992,4650 -2833,17943 -2736,23448 89,5056 371,10132 506,15194zm23846 -109977c4134,-11 8705,-778 12757,-1534 6219,-1161 12415,-2659 18536,-4260 15431,-4036 30775,-8865 45880,-13981 17257,-5846 34592,-12182 51362,-19312 5959,-2533 12006,-5206 17728,-8241 830,-440 2476,-1326 4059,-2292 -6820,-2232 -14873,-3265 -21492,-3915 -6269,-616 -12558,-955 -18847,-1288 -4860,-257 -9967,-434 -14782,-1104 -1718,-239 -3148,-217 -4856,28 -2193,314 -4150,655 -6394,714 -4445,115 -8833,389 -13243,955 -3499,448 -6977,1057 -10446,1683 -14881,2687 -29284,6626 -43838,10651 -6585,1822 -13558,3806 -19529,7210 -2203,1255 -4308,2684 -6393,4123 -2521,1738 -5026,3489 -7558,5207l0 24407 17057 948zm196687 -95512c2335,-2876 5099,-5053 7669,-7816 18560,-19943 35375,-59446 34759,-86887 -261,-11590 -2467,-22310 -9464,-31776 -3720,-5034 -8406,-9257 -13310,-13111 -24121,-18958 -60565,-21946 -90117,-20711 -15490,648 -30988,2510 -46261,5144 -13092,2258 -26118,5100 -38971,8463 -13115,3432 -26105,7903 -38736,12812 -12957,5035 -25781,10644 -38241,16813 -7696,3811 -12805,6549 -18388,12491 1663,2646 3786,5279 5553,7710 3343,4596 6326,9229 8731,14397 2285,4903 4247,10107 5990,15227 1523,4474 2938,9080 3992,13690 1939,8476 3277,16957 4357,25579 1062,8482 1936,16975 3127,25442 611,4342 1576,8779 1999,13198 3590,-1095 7115,-2446 10734,-3447 18547,-5131 37449,-9417 56427,-12612 18849,-3175 38319,-5403 57451,-5403 9993,0 20021,-73 30011,136 6274,131 12513,413 18742,1213 6052,778 12019,2025 17969,3366 8671,1955 17319,4056 25976,6086zm1384004 266662c9486,-267 18582,-1373 27809,-4301 4747,-1506 9348,-3402 13889,-5438 22415,-10044 48521,-30319 59678,-52574 3676,-7332 6893,-16222 6462,-24553 -285,-5506 -2178,-10522 -6254,-14328 -4835,-4514 -11652,-6336 -18131,-6447 -7735,-131 -15632,2095 -22314,5955 -13000,7512 -18745,15990 -26917,28136 -9542,14181 -16796,28862 -23034,44733 -2394,6092 -4602,12247 -6926,18364 -1327,3494 -2706,7023 -4262,10453zm-813034 -273409c882,-848 1572,-1981 2541,-3264 2212,-2923 4601,-5477 7227,-8023 2236,-2169 4488,-4272 6606,-6563 1519,-1641 2976,-3335 4426,-5036 2306,-2707 4595,-5407 7059,-7975 2906,-3030 5990,-5806 9329,-8353 1764,-1346 5326,-4151 7937,-7009 -21844,6932 -42675,22447 -45125,46223zm39538 28148c1436,1070 1990,1371 5170,1371 18945,0 42428,-4020 59852,-11400 5364,-2272 10364,-4825 15469,-7612 8102,-4423 19748,-13400 24794,-21137 3795,-5818 4864,-9089 5681,-16039 270,-2293 227,-4846 -88,-7130 -260,-1884 -1073,-5752 -3033,-6658 -8913,-4120 -27900,238 -36386,4372 -12521,6100 -23964,13504 -34532,22582 -10698,9191 -20063,19684 -28796,30729 -2219,2807 -6361,7183 -8132,10923zm-117765 144901c-4684,4608 -9449,15904 -11072,19875 -2054,5026 -3899,10132 -5724,15244 -733,2055 -1462,4114 -2222,6159 -9,23 -18,47 -27,69 886,87 1776,196 2691,325 2453,345 4657,558 7141,563l14827 -926c-9,-5034 -63,-10107 -365,-15113 -208,-3466 -572,-6832 -1266,-10235 -551,-2701 -1266,-5376 -1965,-8043 -690,-2638 -1368,-5274 -2018,-7919zm-229215 69180c-1997,-3838 -5520,-4930 -10431,-4930 -2565,0 -10631,198 -11051,4035 -63,585 20,1201 161,1769 307,1238 1444,3591 2373,4374 524,355 1089,599 1706,737 2986,671 7147,-1179 9795,-2428 2334,-1100 4895,-2512 7447,-3557z"/>
 </g>
</svg>
