<svg xmlns="http://www.w3.org/2000/svg" id="canvas" viewBox="286.930 304.542 1151.975 303.128"><path d="M 294.30,491.51 C 296.36 490.91, 297.46 489.03, 300.24 485.14 C 303.02 481.25, 304.42 478.50, 308.20 472.06 C 311.98 465.63, 314.44 461.41, 319.14 452.99 C 323.83 444.56, 326.62 439.57, 331.69 429.96 C 336.76 420.34, 339.59 414.82, 344.48 404.92 C 349.38 395.02, 352.03 389.58, 356.18 380.44 C 360.33 371.30, 362.35 366.58, 365.23 359.22 C 368.11 351.86, 369.80 348.64, 370.57 343.63 C 371.34 338.62, 371.13 335.98, 369.07 334.17 C 367.02 332.35, 363.73 331.79, 360.28 334.54 C 356.84 337.28, 355.62 340.30, 351.84 347.89 C 348.07 355.48, 345.70 360.49, 341.41 372.49 C 337.11 384.50, 334.47 392.18, 330.37 407.91 C 326.28 423.65, 324.00 433.33, 320.95 451.16 C 317.90 468.98, 316.49 479.39, 315.12 497.04 C 313.76 514.69, 313.50 524.19, 314.15 539.42 C 314.80 554.65, 315.71 562.01, 318.39 573.17 C 321.07 584.33, 322.94 588.95, 327.55 595.20 C 332.17 601.44, 335.46 603.45, 341.47 604.39 C 347.49 605.33, 351.45 603.91, 357.64 599.91 C 363.82 595.91, 367.14 592.08, 372.40 584.39 C 377.66 576.71, 380.30 571.20, 383.92 561.47 C 387.54 551.73, 389.00 545.55, 390.50 535.73 C 391.99 525.91, 392.07 520.52, 391.40 512.36 C 390.73 504.21, 389.58 500.50, 387.13 494.95 C 384.68 489.40, 382.76 487.31, 379.13 484.61 C 375.51 481.91, 372.50 481.00, 368.99 481.46 C 365.48 481.92, 362.88 483.93, 361.59 486.90 C 360.30 489.88, 360.40 493.65, 362.53 496.33 C 364.66 499.02, 367.44 499.91, 372.24 500.32 C 377.03 500.72, 380.09 499.84, 386.49 498.36 C 392.90 496.87, 396.82 495.54, 404.27 492.90 C 411.72 490.26, 416.11 488.24, 423.75 485.16 C 431.38 482.07, 435.67 479.92, 442.45 477.48 C 449.22 475.04, 452.81 473.75, 457.60 472.95 C 462.40 472.14, 463.83 472.03, 466.42 473.46 C 469.01 474.89, 469.55 475.59, 470.57 480.11 C 471.59 484.63, 471.81 488.34, 471.53 496.07 C 471.25 503.79, 470.49 509.19, 469.18 518.72 C 467.87 528.26, 466.75 534.38, 464.98 543.74 C 463.20 553.09, 461.93 558.49, 460.30 565.49 C 458.67 572.49, 456.65 575.54, 456.83 578.74 C 457.01 581.94, 459.83 582.88, 461.20 581.48 C 462.57 580.09, 462.65 577.56, 463.68 571.76 C 464.71 565.95, 464.96 560.96, 466.33 552.45 C 467.70 543.94, 468.50 538.17, 470.51 529.21 C 472.52 520.25, 473.78 515.16, 476.37 507.67 C 478.97 500.17, 480.51 496.66, 483.49 491.73 C 486.46 486.80, 487.99 485.36, 491.25 483.03 C 494.50 480.70, 495.81 480.65, 499.76 480.07 C 503.71 479.49, 505.88 479.90, 511.01 480.15 C 516.14 480.40, 519.20 481.05, 525.42 481.33 C 531.65 481.61, 535.24 481.97, 542.14 481.55 C 549.04 481.14, 552.95 480.75, 559.94 479.24 C 566.93 477.74, 570.72 476.50, 577.08 474.01 C 583.44 471.52, 586.71 469.79, 591.76 466.79 C 596.82 463.79, 599.69 462.41, 602.35 459.01 C 605.00 455.61, 605.91 452.94, 605.03 449.79 C 604.14 446.65, 601.54 443.64, 597.92 443.28 C 594.31 442.92, 591.67 444.67, 586.95 447.97 C 582.22 451.28, 579.43 453.75, 574.29 459.81 C 569.16 465.88, 566.09 469.94, 561.27 478.29 C 556.45 486.63, 553.76 492.05, 550.17 501.54 C 546.57 511.03, 544.95 516.71, 543.29 525.74 C 541.64 534.78, 541.25 539.59, 541.89 546.71 C 542.52 553.83, 543.24 557.43, 546.46 561.34 C 549.67 565.24, 552.99 566.68, 557.95 566.24 C 562.91 565.79, 566.00 563.77, 571.26 559.12 C 576.53 554.47, 579.30 550.74, 584.28 542.98 C 589.25 535.22, 591.86 529.82, 596.15 520.33 C 600.44 510.83, 602.57 504.87, 605.72 495.51 C 608.88 486.16, 610.26 480.51, 611.91 473.55 C 613.56 466.59, 614.88 463.34, 613.99 460.72 C 613.10 458.10, 609.02 457.87, 607.46 460.45 C 605.90 463.03, 606.35 466.65, 606.18 473.63 C 606.02 480.60, 605.87 486.26, 606.65 495.32 C 607.42 504.39, 608.11 510.28, 610.07 518.94 C 612.02 527.59, 613.12 532.24, 616.42 538.60 C 619.72 544.96, 621.72 548.07, 626.56 550.74 C 631.39 553.40, 634.90 553.65, 640.59 551.93 C 646.27 550.21, 649.28 547.68, 654.99 542.14 C 660.70 536.59, 663.67 532.28, 669.14 524.22 C 674.61 516.16, 677.57 510.53, 682.36 501.84 C 687.15 493.14, 689.63 487.29, 693.11 480.73 C 696.60 474.17, 698.81 471.37, 699.79 469.03 C 700.76 466.69, 698.18 466.40, 697.98 469.04 C 697.78 471.67, 698.46 475.12, 698.79 482.22 C 699.13 489.31, 698.99 495.45, 699.66 504.53 C 700.33 513.61, 700.71 519.48, 702.16 527.63 C 703.62 535.78, 704.17 539.86, 706.95 545.27 C 709.73 550.68, 711.76 553.49, 716.06 554.69 C 720.37 555.90, 723.63 554.77, 728.47 551.32 C 733.31 547.86, 735.51 544.44, 740.28 537.40 C 745.05 530.36, 747.59 525.18, 752.32 516.13 C 757.05 507.08, 759.70 500.58, 763.93 492.14 C 768.16 483.70, 770.78 478.67, 773.46 473.92 C 776.13 469.17, 776.37 468.21, 777.31 468.39 C 778.25 468.58, 777.72 469.89, 778.15 474.85 C 778.59 479.82, 778.99 485.09, 779.48 493.22 C 779.97 501.35, 779.92 507.29, 780.61 515.50 C 781.30 523.71, 781.33 528.20, 782.92 534.26 C 784.51 540.33, 785.18 543.58, 788.55 545.83 C 791.92 548.09, 795.32 547.92, 799.76 545.53 C 804.21 543.13, 806.11 539.92, 810.79 533.88 C 815.46 527.84, 818.15 522.98, 823.15 515.31 C 828.15 507.64, 831.19 502.18, 835.77 495.52 C 840.35 488.87, 843.20 485.25, 846.06 482.04 C 848.92 478.83, 848.80 478.59, 850.05 479.47 C 851.31 480.34, 851.43 481.59, 852.33 486.40 C 853.23 491.21, 853.50 496.00, 854.57 503.52 C 855.65 511.03, 855.91 516.25, 857.72 523.96 C 859.52 531.67, 860.39 536.05, 863.60 542.06 C 866.80 548.08, 868.73 551.14, 873.76 554.03 C 878.79 556.91, 882.88 556.92, 888.73 556.50 C 894.58 556.08, 898.17 554.19, 903.03 551.92 C 907.88 549.65, 911.66 547.55, 913.00 545.13 C 914.34 542.71, 912.34 539.80, 909.73 539.82 C 907.11 539.84, 904.28 543.25, 899.94 545.23 C 895.59 547.20, 892.65 549.00, 888.01 549.69 C 883.36 550.39, 880.57 550.77, 876.73 548.71 C 872.88 546.65, 871.37 544.60, 868.76 539.38 C 866.14 534.17, 865.18 530.00, 863.65 522.64 C 862.11 515.29, 862.05 510.20, 861.08 502.63 C 860.10 495.06, 860.45 490.50, 858.76 484.81 C 857.08 479.13, 856.03 475.64, 852.66 474.22 C 849.29 472.79, 846.22 474.07, 841.91 477.69 C 837.60 481.32, 835.81 485.44, 831.11 492.34 C 826.41 499.23, 823.45 504.64, 818.41 512.19 C 813.38 519.73, 810.37 524.51, 805.94 530.07 C 801.50 535.62, 798.92 537.84, 796.24 539.95 C 793.56 542.05, 794.00 542.04, 792.55 540.61 C 791.10 539.17, 790.15 537.89, 788.99 532.77 C 787.83 527.65, 787.39 522.98, 786.75 515.00 C 786.10 507.01, 786.29 501.08, 785.77 492.83 C 785.25 484.58, 785.70 479.46, 784.16 473.74 C 782.62 468.03, 781.13 464.82, 778.08 464.26 C 775.02 463.71, 772.61 465.83, 768.89 470.96 C 765.17 476.10, 763.66 481.37, 759.48 489.94 C 755.30 498.52, 752.73 504.97, 747.99 513.83 C 743.25 522.70, 740.42 527.76, 735.78 534.28 C 731.15 540.80, 728.41 543.55, 724.81 546.45 C 721.21 549.34, 720.29 549.49, 717.76 548.75 C 715.24 548.00, 714.20 547.13, 712.17 542.72 C 710.15 538.30, 708.94 534.40, 707.65 526.68 C 706.35 518.96, 706.21 513.08, 705.70 504.13 C 705.19 495.18, 705.44 489.29, 705.10 481.92 C 704.75 474.55, 705.93 470.67, 703.98 467.29 C 702.03 463.91, 698.49 462.82, 695.35 465.01 C 692.22 467.20, 691.72 471.34, 688.29 478.25 C 684.85 485.16, 682.81 490.92, 678.18 499.56 C 673.55 508.20, 670.51 513.72, 665.12 521.45 C 659.74 529.19, 656.52 533.26, 651.26 538.26 C 646.00 543.26, 643.21 544.95, 638.83 546.46 C 634.45 547.97, 632.88 547.85, 629.35 545.80 C 625.82 543.74, 624.00 541.76, 621.18 536.17 C 618.36 530.57, 616.90 526.08, 615.23 517.83 C 613.56 509.58, 613.27 503.70, 612.83 494.90 C 612.38 486.10, 612.76 480.56, 613.01 473.83 C 613.25 467.10, 614.98 464.00, 614.06 461.24 C 613.14 458.47, 609.92 457.78, 608.41 460.00 C 606.89 462.23, 607.89 465.53, 606.49 472.35 C 605.09 479.17, 604.29 484.89, 601.40 494.10 C 598.51 503.32, 596.32 509.23, 592.04 518.44 C 587.75 527.65, 584.92 532.90, 579.98 540.14 C 575.04 547.38, 571.91 550.68, 567.34 554.65 C 562.78 558.61, 560.39 559.36, 557.15 559.96 C 553.91 560.57, 553.16 560.41, 551.14 557.66 C 549.12 554.91, 547.72 552.43, 547.05 546.21 C 546.38 539.98, 546.34 535.15, 547.80 526.54 C 549.25 517.92, 550.79 512.28, 554.33 503.14 C 557.87 494.00, 560.59 488.66, 565.50 480.83 C 570.41 473.01, 573.71 469.22, 578.88 464.02 C 584.06 458.82, 587.39 457.18, 591.39 454.84 C 595.39 452.50, 597.34 453.24, 598.88 452.33 C 600.42 451.42, 599.69 450.10, 599.09 450.30 C 598.49 450.49, 598.10 451.17, 595.87 453.29 C 593.65 455.41, 592.18 457.91, 587.96 460.92 C 583.73 463.92, 580.61 465.82, 574.75 468.32 C 568.90 470.82, 565.27 472.01, 558.69 473.41 C 552.11 474.81, 548.41 475.10, 541.84 475.32 C 535.28 475.53, 531.95 475.00, 525.85 474.50 C 519.76 474.01, 516.86 473.13, 511.39 472.84 C 505.91 472.55, 503.28 472.02, 498.47 473.04 C 493.67 474.06, 491.32 474.77, 487.37 477.96 C 483.41 481.14, 481.84 483.33, 478.70 488.95 C 475.55 494.57, 474.26 498.23, 471.62 506.04 C 468.98 513.85, 467.77 518.95, 465.49 528.01 C 463.21 537.07, 461.97 542.79, 460.22 551.34 C 458.48 559.89, 457.41 564.77, 456.76 570.78 C 456.11 576.78, 455.68 579.46, 456.97 581.38 C 458.26 583.30, 461.43 583.33, 463.20 580.38 C 464.96 577.43, 464.49 573.78, 465.78 566.63 C 467.08 559.47, 468.03 554.03, 469.69 544.60 C 471.35 535.16, 472.59 529.09, 474.08 519.44 C 475.57 509.79, 476.62 504.51, 477.13 496.35 C 477.64 488.18, 478.14 484.31, 476.65 478.61 C 475.15 472.91, 473.65 470.18, 469.65 467.83 C 465.65 465.48, 462.47 465.98, 456.64 466.85 C 450.81 467.73, 447.48 469.57, 440.50 472.21 C 433.51 474.86, 429.35 477.09, 421.73 480.07 C 414.11 483.05, 409.70 484.97, 402.40 487.13 C 395.09 489.28, 391.04 490.21, 385.20 490.84 C 379.35 491.47, 376.52 490.65, 373.18 490.29 C 369.84 489.93, 369.58 488.97, 368.51 489.04 C 367.45 489.10, 367.60 490.23, 367.85 490.60 C 368.09 490.96, 368.32 490.81, 369.74 490.87 C 371.17 490.94, 372.52 489.61, 374.97 490.92 C 377.42 492.23, 379.65 493.05, 381.99 497.43 C 384.33 501.81, 385.84 505.29, 386.68 512.82 C 387.52 520.35, 387.57 525.67, 386.19 535.09 C 384.81 544.50, 383.32 550.59, 379.77 559.91 C 376.23 569.23, 373.45 574.51, 368.47 581.69 C 363.50 588.88, 360.19 592.18, 354.91 595.83 C 349.64 599.47, 346.97 600.50, 342.10 599.92 C 337.23 599.35, 334.72 598.45, 330.56 592.95 C 326.41 587.45, 324.10 583.17, 321.33 572.44 C 318.56 561.71, 317.47 554.34, 316.71 539.30 C 315.95 524.26, 316.17 514.76, 317.51 497.22 C 318.85 479.68, 320.26 469.30, 323.39 451.58 C 326.52 433.87, 328.84 424.21, 333.16 408.66 C 337.47 393.11, 340.30 385.49, 344.97 373.85 C 349.65 362.20, 352.48 357.33, 356.54 350.43 C 360.61 343.54, 363.41 342.12, 365.28 339.36 C 367.15 336.61, 366.05 336.03, 365.90 336.65 C 365.74 337.27, 365.54 338.25, 364.51 342.44 C 363.47 346.63, 363.14 350.33, 360.73 357.60 C 358.33 364.87, 356.43 369.68, 352.49 378.80 C 348.55 387.92, 345.91 393.37, 341.03 403.21 C 336.15 413.05, 333.30 418.54, 328.08 428.01 C 322.86 437.47, 319.93 442.36, 314.93 450.53 C 309.93 458.69, 307.20 462.74, 303.08 468.84 C 298.96 474.94, 296.97 477.16, 294.34 481.03 C 291.71 484.89, 289.94 486.06, 289.93 488.16 C 289.92 490.25, 292.23 492.11, 294.30 491.51" style="stroke: black; fill: black;"/><path d="M 1051.20,336.30 C 1049.83 337.88, 1049.66 339.18, 1049.35 344.10 C 1049.03 349.02, 1047.78 357.56, 1049.64 360.89 C 1051.50 364.21, 1056.91 364.12, 1058.65 360.73 C 1060.39 357.34, 1058.85 348.84, 1058.36 343.94 C 1057.87 339.03, 1057.63 337.73, 1056.20 336.20 C 1054.77 334.67, 1052.57 334.72, 1051.20 336.30" style="stroke: black; fill: black;"/><path d="M 1051.19,412.58 C 1050.03 416.37, 1050.34 422.24, 1049.68 431.90 C 1049.03 441.55, 1048.53 448.75, 1047.93 460.86 C 1047.32 472.96, 1046.89 481.09, 1046.64 492.43 C 1046.39 503.77, 1046.31 509.40, 1046.66 517.55 C 1047.00 525.71, 1046.39 529.09, 1048.35 533.21 C 1050.31 537.32, 1053.16 539.15, 1056.46 538.13 C 1059.76 537.10, 1061.25 534.00, 1064.83 528.09 C 1068.42 522.19, 1070.21 517.19, 1074.37 508.58 C 1078.54 499.97, 1081.01 493.88, 1085.66 485.05 C 1090.32 476.21, 1093.17 470.99, 1097.65 464.40 C 1102.12 457.82, 1105.00 454.94, 1108.04 452.13 C 1111.08 449.33, 1111.25 449.44, 1112.84 450.38 C 1114.42 451.32, 1114.80 452.18, 1115.98 456.81 C 1117.17 461.45, 1117.78 465.74, 1118.76 473.54 C 1119.75 481.33, 1119.95 486.89, 1120.91 495.79 C 1121.87 504.68, 1122.02 510.12, 1123.56 518.01 C 1125.09 525.89, 1125.58 529.94, 1128.58 535.20 C 1131.57 540.47, 1133.81 543.09, 1138.53 544.34 C 1143.25 545.58, 1146.57 544.54, 1152.17 541.42 C 1157.76 538.30, 1160.65 535.10, 1166.50 528.75 C 1172.35 522.39, 1175.66 517.70, 1181.44 509.63 C 1187.22 501.57, 1190.40 496.26, 1195.39 488.43 C 1200.37 480.60, 1203.31 476.06, 1206.37 470.47 C 1209.42 464.89, 1211.00 462.57, 1210.67 460.51 C 1210.34 458.46, 1206.79 457.65, 1204.71 460.19 C 1202.63 462.73, 1202.12 466.49, 1200.26 473.22 C 1198.40 479.95, 1196.84 485.19, 1195.40 493.83 C 1193.96 502.48, 1193.21 508.09, 1193.08 516.44 C 1192.95 524.80, 1193.04 529.26, 1194.75 535.59 C 1196.46 541.92, 1197.77 545.17, 1201.62 548.09 C 1205.47 551.02, 1209.11 551.62, 1213.98 550.21 C 1218.86 548.81, 1221.68 546.34, 1225.99 541.08 C 1230.31 535.82, 1232.52 531.79, 1235.55 523.92 C 1238.59 516.06, 1239.98 510.77, 1241.16 501.76 C 1242.34 492.75, 1242.39 487.29, 1241.45 478.87 C 1240.51 470.45, 1239.22 466.06, 1236.44 459.68 C 1233.66 453.29, 1231.48 450.61, 1227.56 446.93 C 1223.64 443.26, 1220.86 441.61, 1216.83 441.30 C 1212.80 440.98, 1209.64 442.52, 1207.41 445.35 C 1205.19 448.19, 1204.28 452.04, 1205.70 455.46 C 1207.12 458.89, 1209.86 461.05, 1214.53 462.48 C 1219.20 463.91, 1222.49 463.85, 1229.05 462.61 C 1235.61 461.36, 1239.50 460.20, 1247.30 456.24 C 1255.10 452.28, 1259.64 449.58, 1268.05 442.81 C 1276.46 436.04, 1281.18 431.63, 1289.36 422.39 C 1297.54 413.16, 1301.88 407.37, 1308.96 396.64 C 1316.04 385.90, 1319.51 379.53, 1324.77 368.72 C 1330.03 357.90, 1332.25 351.85, 1335.24 342.57 C 1338.24 333.30, 1339.32 328.93, 1339.73 322.33 C 1340.15 315.73, 1340.01 312.15, 1337.31 309.57 C 1334.62 307.00, 1330.62 306.78, 1326.27 309.44 C 1321.93 312.10, 1319.91 315.30, 1315.60 322.88 C 1311.29 330.45, 1308.78 335.68, 1304.71 347.30 C 1300.64 358.92, 1298.37 366.40, 1295.25 381.00 C 1292.14 395.59, 1290.63 404.47, 1289.16 420.26 C 1287.68 436.04, 1287.26 445.00, 1287.89 459.93 C 1288.51 474.87, 1289.34 482.59, 1292.27 494.93 C 1295.20 507.27, 1297.32 513.05, 1302.54 521.65 C 1307.75 530.24, 1311.18 533.74, 1318.35 537.92 C 1325.51 542.09, 1330.04 542.93, 1338.36 542.54 C 1346.67 542.14, 1351.51 540.41, 1359.94 535.94 C 1368.37 531.48, 1373.01 527.69, 1380.50 520.23 C 1387.99 512.76, 1391.81 507.59, 1397.39 498.62 C 1402.97 489.65, 1405.43 484.12, 1408.41 475.37 C 1411.39 466.62, 1412.28 461.97, 1412.30 454.86 C 1412.33 447.74, 1411.63 444.08, 1408.54 439.81 C 1405.45 435.53, 1402.06 433.73, 1396.85 433.49 C 1391.64 433.25, 1387.87 434.73, 1382.48 438.61 C 1377.10 442.50, 1374.00 445.85, 1369.95 452.91 C 1365.89 459.96, 1363.80 464.83, 1362.20 473.90 C 1360.61 482.97, 1360.19 488.65, 1361.96 498.24 C 1363.73 507.82, 1365.26 513.40, 1371.06 521.82 C 1376.86 530.25, 1382.36 534.37, 1390.97 540.38 C 1399.58 546.38, 1405.78 548.62, 1414.12 551.84 C 1422.45 555.05, 1428.74 556.32, 1432.64 556.44 C 1436.54 556.56, 1437.04 554.12, 1433.63 552.44 C 1430.22 550.76, 1423.65 551.11, 1415.58 548.02 C 1407.52 544.94, 1401.55 542.70, 1393.30 537.01 C 1385.06 531.32, 1379.79 527.46, 1374.36 519.55 C 1368.93 511.65, 1367.65 506.45, 1366.17 497.50 C 1364.69 488.55, 1365.23 483.15, 1366.95 474.80 C 1368.67 466.46, 1370.92 461.99, 1374.77 455.78 C 1378.61 449.56, 1381.78 446.91, 1386.18 443.74 C 1390.58 440.57, 1393.24 440.02, 1396.75 439.92 C 1400.27 439.81, 1401.67 440.22, 1403.77 443.21 C 1405.88 446.20, 1407.18 448.73, 1407.28 454.89 C 1407.38 461.04, 1406.94 465.68, 1404.27 474.00 C 1401.60 482.32, 1399.26 487.81, 1393.92 496.48 C 1388.59 505.14, 1384.80 510.17, 1377.61 517.32 C 1370.42 524.47, 1365.85 528.01, 1357.96 532.21 C 1350.06 536.42, 1345.67 537.90, 1338.13 538.37 C 1330.59 538.84, 1326.81 538.27, 1320.27 534.57 C 1313.73 530.87, 1310.44 527.95, 1305.41 519.88 C 1300.39 511.81, 1298.10 506.24, 1295.15 494.23 C 1292.19 482.22, 1291.27 474.56, 1290.63 459.81 C 1289.98 445.07, 1290.39 436.15, 1291.92 420.52 C 1293.45 404.89, 1295.00 396.04, 1298.29 381.67 C 1301.59 367.29, 1304.06 359.89, 1308.39 348.66 C 1312.73 337.42, 1315.70 332.36, 1319.99 325.49 C 1324.28 318.62, 1327.24 316.72, 1329.83 314.32 C 1332.42 311.91, 1331.97 311.92, 1332.96 313.46 C 1333.95 315.01, 1335.08 316.45, 1334.78 322.04 C 1334.48 327.63, 1334.09 332.38, 1331.47 341.42 C 1328.84 350.45, 1326.73 356.55, 1321.67 367.23 C 1316.61 377.90, 1313.17 384.24, 1306.17 394.79 C 1299.18 405.35, 1294.83 411.06, 1286.69 420.00 C 1278.56 428.95, 1273.81 433.23, 1265.49 439.52 C 1257.16 445.82, 1252.54 448.27, 1245.07 451.47 C 1237.59 454.68, 1233.63 455.18, 1228.11 455.54 C 1222.58 455.91, 1220.27 454.24, 1217.43 453.29 C 1214.59 452.35, 1214.74 451.35, 1213.92 450.82 C 1213.11 450.28, 1212.95 450.75, 1213.35 450.62 C 1213.75 450.49, 1213.98 449.87, 1215.94 450.16 C 1217.89 450.45, 1220.04 449.70, 1223.13 452.07 C 1226.22 454.44, 1228.73 456.52, 1231.39 461.99 C 1234.05 467.47, 1235.50 471.64, 1236.45 479.45 C 1237.39 487.27, 1237.34 492.60, 1236.11 501.07 C 1234.89 509.54, 1233.31 514.63, 1230.30 521.82 C 1227.29 529.00, 1224.75 532.60, 1221.07 537.00 C 1217.38 541.40, 1214.97 542.60, 1211.88 543.82 C 1208.79 545.03, 1207.91 545.01, 1205.61 543.06 C 1203.31 541.12, 1201.78 539.39, 1200.38 534.09 C 1198.99 528.79, 1198.39 524.40, 1198.63 516.57 C 1198.88 508.75, 1199.93 503.25, 1201.59 494.97 C 1203.26 486.69, 1205.01 481.65, 1206.97 475.17 C 1208.94 468.69, 1211.42 465.92, 1211.42 462.58 C 1211.43 459.24, 1209.04 457.48, 1207.01 458.48 C 1204.98 459.48, 1204.41 462.13, 1201.26 467.60 C 1198.10 473.07, 1195.98 478.00, 1191.23 485.84 C 1186.48 493.68, 1183.23 498.95, 1177.50 506.79 C 1171.77 514.63, 1168.24 519.16, 1162.58 525.06 C 1156.92 530.96, 1153.73 533.61, 1149.22 536.29 C 1144.71 538.97, 1143.15 539.25, 1140.03 538.48 C 1136.91 537.71, 1135.87 536.74, 1133.63 532.44 C 1131.39 528.14, 1130.29 524.41, 1128.84 516.97 C 1127.38 509.53, 1127.16 504.07, 1126.35 495.24 C 1125.54 486.42, 1125.62 480.90, 1124.79 472.85 C 1123.96 464.79, 1124.07 460.62, 1122.21 454.97 C 1120.35 449.32, 1119.06 446.06, 1115.50 444.62 C 1111.93 443.17, 1108.79 444.35, 1104.39 447.76 C 1099.98 451.16, 1098.08 454.62, 1093.48 461.62 C 1088.88 468.62, 1086.18 473.86, 1081.38 482.77 C 1076.58 491.67, 1073.83 497.69, 1069.47 506.13 C 1065.11 514.58, 1062.69 519.58, 1059.58 524.98 C 1056.47 530.39, 1055.11 531.85, 1053.90 533.14 C 1052.69 534.43, 1054.08 534.60, 1053.55 531.43 C 1053.01 528.26, 1051.81 525.08, 1051.24 517.29 C 1050.67 509.51, 1050.57 503.74, 1050.69 492.49 C 1050.81 481.25, 1051.25 473.11, 1051.83 461.05 C 1052.41 448.99, 1052.86 441.80, 1053.59 432.18 C 1054.32 422.56, 1055.96 416.88, 1055.48 412.96 C 1055.00 409.04, 1052.35 408.79, 1051.19 412.58" style="stroke: black; fill: black;"/></svg>