<?xml version="1.0" encoding="UTF-8"?>
<!DOCTYPE svg PUBLIC "-//W3C//DTD SVG 1.1//EN" "http://www.w3.org/Graphics/SVG/1.1/DTD/svg11.dtd">
<!-- Creator: CorelDRAW 2020 (64-Bit) -->
<svg xmlns="http://www.w3.org/2000/svg" xml:space="preserve" width="212.431mm" height="57.6919mm" version="1.1" style="shape-rendering:geometricPrecision; text-rendering:geometricPrecision; image-rendering:optimizeQuality; fill-rule:evenodd; clip-rule:evenodd"
viewBox="0 0 1378394 374343"
 xmlns:xlink="http://www.w3.org/1999/xlink"
 xmlns:xodm="http://www.corel.com/coreldraw/odm/2003">
 <defs>
  <style type="text/css">
   <![CDATA[
    .str0 {stroke:black;stroke-width:22891;stroke-miterlimit:22.9256}
    .fil0 {fill:black;fill-rule:nonzero}
   ]]>
  </style>
 </defs>
 <g id="图层_x0020_1">
  <metadata id="CorelCorpID_0Corel-Layer"/>
  <g id="_2300071707264">
   <path class="fil0 str0" d="M16614 229049c2436,-710 3738,-2934 7027,-7535 3288,-4602 4944,-7855 9415,-15472 4471,-7605 7382,-12597 12940,-22556 5548,-9972 8848,-15874 14845,-27241 5997,-11379 9344,-17909 15128,-29619 5796,-11710 8930,-18145 13840,-28956 4909,-10811 7298,-16394 10704,-25100 3407,-8706 5406,-12515 6317,-18441 911,-5926 662,-9048 -1774,-11190 -2425,-2153 -6317,-2815 -10397,438 -4069,3240 -5512,6813 -9983,15791 -4459,8978 -7263,14904 -12337,29098 -5086,14206 -8209,23290 -13059,41897 -4838,18618 -7535,30068 -11142,51159 -3608,21078 -5275,33391 -6896,54269 -1609,20877 -1916,32114 -1147,50129 769,18014 1845,26720 5015,39922 3170,13201 5382,18665 10835,26058 5465,7382 9357,9759 16466,10870 7121,1112 11805,-568 19127,-5299 7310,-4731 11237,-9261 17459,-18358 6222,-9084 9344,-15602 13627,-27111 4282,-11521 6009,-18831 7783,-30447 1762,-11615 1857,-17991 1064,-27643 -792,-9640 -2153,-14029 -5051,-20594 -2898,-6565 -5169,-9037 -9462,-12230 -4283,-3194 -7843,-4270 -11994,-3726 -4152,544 -7227,2922 -8753,6435 -1526,3525 -1407,7984 1112,11155 2519,3181 5807,4235 11485,4719 5666,473 9286,-568 16856,-2318 7582,-1762 12219,-3336 21031,-6458 8812,-3123 14005,-5512 23042,-9156 9025,-3655 14100,-6198 22119,-9084 8008,-2886 12254,-4412 17920,-5358 5678,-958 7369,-1088 10432,603 3064,1691 3702,2520 4909,7866 1206,5347 1466,9735 1136,18879 -332,9131 -1230,15519 -2780,26792 -1549,11284 -2874,18523 -4968,29595 -2105,11060 -3608,17447 -5535,25727 -1928,8280 -4318,11888 -4105,15673 213,3785 3549,4897 5170,3241 1620,-1644 1715,-4637 2934,-11497 1218,-6872 1514,-12775 3134,-22841 1621,-10066 2567,-16891 4944,-27490 2377,-10598 3868,-16619 6932,-25478 3076,-8871 4897,-13023 8422,-18855 3513,-5831 5323,-7535 9179,-10291 3845,-2756 5394,-2815 10067,-3501 4672,-686 7239,-201 13307,95 6068,296 9688,1065 17045,1396 7369,332 11615,757 19777,260 8161,-485 12787,-946 21054,-2732 8269,-1774 12752,-3241 20274,-6186 7523,-2945 11391,-4992 17364,-8540 5985,-3548 9380,-5181 12526,-9202 3135,-4021 4211,-7179 3170,-10906 -1052,-3714 -4128,-7274 -8410,-7700 -4270,-426 -7393,1644 -12976,5547 -5595,3915 -8895,6837 -14975,14004 -6068,7180 -9700,11983 -15401,21859 -5702,9865 -8884,16276 -13130,27502 -4259,11225 -6175,17944 -8138,28625 -1952,10693 -2413,16383 -1656,24804 745,8422 1597,12680 5406,17305 3797,4613 7724,6317 13591,5796 5866,-532 9521,-2921 15743,-8422 6234,-5500 9510,-9912 15401,-19091 5879,-9180 8966,-15567 14041,-26792 5074,-11238 7594,-18287 11319,-29359 3738,-11060 5370,-17743 7322,-25975 1952,-8233 3514,-12077 2461,-15176 -1052,-3099 -5879,-3371 -7724,-319 -1845,3052 -1313,7333 -1514,15590 -189,8244 -367,14939 556,25656 910,10729 1727,17696 4045,27940 2307,10231 3608,15732 7511,23255 3904,7523 6269,11201 11994,14360 5713,3146 9865,3442 16595,1407 6718,-2035 10279,-5027 17033,-11580 6754,-6565 10268,-11663 16738,-21197 6470,-9534 9972,-16193 15638,-26472 5666,-10291 8599,-17211 12715,-24970 4129,-7759 6742,-11071 7902,-13839 1147,-2768 -1904,-3111 -2141,12 -236,3111 568,7192 958,15590 402,8386 236,15649 1029,26389 792,10740 1242,17684 2957,27324 1727,9640 2377,14466 5666,20866 3288,6399 5690,9723 10776,11142 5098,1431 8954,95 14679,-3986 5725,-4092 8327,-8138 13969,-16466 5643,-8327 8647,-14454 14242,-25159 5595,-10705 8729,-18393 13733,-28377 5003,-9983 8102,-15933 11273,-21551 3158,-5619 3442,-6754 4554,-6541 1112,225 485,1775 994,7642 520,5879 993,12112 1573,21729 579,9617 520,16643 1337,26354 816,9711 852,15022 2732,22190 1881,7180 2673,11024 6659,13686 3987,2673 8008,2472 13260,-355 5264,-2839 7511,-6636 13047,-13780 5524,-7145 8706,-12894 14620,-21966 5914,-9072 9510,-15531 14927,-23409 5417,-7866 8789,-12148 12172,-15945 3383,-3797 3240,-4081 4719,-3040 1490,1029 1633,2507 2697,8197 1065,5689 1384,11355 2650,20250 1278,8883 1585,15058 3726,24177 2130,9120 3159,14300 6955,21409 3785,7121 6068,10741 12018,14159 5950,3407 10788,3419 17708,2922 6920,-497 11166,-2732 16915,-5417 5737,-2685 10208,-5170 11793,-8032 1585,-2863 -781,-6304 -3868,-6281 -3099,23 -6446,4057 -11580,6399 -5145,2330 -8623,4460 -14111,5276 -5500,828 -8801,1277 -13343,-1160 -4554,-2436 -6340,-4861 -9427,-11036 -3099,-6163 -4235,-11095 -6045,-19801 -1821,-8694 -1892,-14715 -3040,-23669 -1159,-8954 -745,-14348 -2744,-21078 -1987,-6718 -3229,-10846 -7215,-12526 -3986,-1692 -7618,-177 -12716,4105 -5098,4294 -7215,9167 -12775,17329 -5559,8150 -9060,14549 -15022,23480 -5950,8919 -9510,14573 -14750,21149 -5252,6565 -8304,9191 -11474,11687 -3170,2484 -2650,2472 -4365,781 -1715,-1703 -2839,-3217 -4211,-9274 -1372,-6056 -1892,-11580 -2649,-21019 -769,-9451 -544,-16465 -1159,-26224 -615,-9758 -83,-15815 -1904,-22581 -1822,-6754 -3584,-10551 -7192,-11214 -3619,-650 -6470,1857 -10870,7925 -4400,6080 -6186,12314 -11131,22451 -4944,10149 -7984,17778 -13591,28258 -5607,10492 -8954,16477 -14442,24190 -5476,7712 -8717,10965 -12975,14395 -4259,3419 -5347,3596 -8339,2721 -2981,-887 -4210,-1916 -6612,-7132 -2389,-5229 -3821,-9841 -5347,-18974 -1538,-9131 -1703,-16087 -2307,-26673 -603,-10587 -308,-17554 -709,-26271 -414,-8718 982,-13307 -1325,-17305 -2307,-3998 -6494,-5288 -10208,-2697 -3702,2590 -4294,7487 -8351,15661 -4069,8173 -6482,14986 -11959,25207 -5477,10220 -9072,16749 -15448,25892 -6364,9156 -10173,13969 -16394,19884 -6222,5914 -9522,7914 -14703,9699 -5181,1786 -7038,1644 -11213,-781 -4175,-2436 -6328,-4778 -9664,-11391 -3336,-6624 -5062,-11935 -7038,-21694 -1976,-9758 -2318,-16714 -2839,-27123 -532,-10409 -82,-16962 213,-24923 284,-7960 2330,-11628 1242,-14892 -1088,-3277 -4897,-4092 -6683,-1466 -1798,2638 -615,6541 -2271,14608 -1656,8067 -2603,14833 -6021,25727 -3418,10906 -6009,17897 -11072,28791 -5074,10894 -8422,17104 -14265,25668 -5843,8564 -9545,12467 -14951,17163 -5394,4684 -8220,5572 -12053,6281 -3832,722 -4719,533 -7109,-2720 -2389,-3253 -4045,-6187 -4838,-13544 -792,-7369 -840,-13082 888,-23267 1715,-10196 3536,-16867 7724,-27679 4187,-10811 7404,-17127 13212,-26389 5808,-9250 9711,-13733 15827,-19884 6127,-6151 10066,-8091 14797,-10858 4732,-2768 7038,-1893 8860,-2969 1822,-1076 958,-2638 249,-2401 -710,225 -1171,1029 -3809,3537 -2626,2507 -4365,5464 -9356,9024 -5004,3549 -8694,5796 -15626,8753 -6920,2957 -11213,4364 -18996,6020 -7783,1657 -12160,1999 -19931,2259 -7760,249 -11698,-378 -18914,-970 -7204,-579 -10634,-1620 -17104,-1963 -6482,-343 -9593,-969 -15283,237 -5678,1206 -8457,2047 -13130,5820 -4684,3761 -6541,6352 -10255,12999 -3726,6648 -5252,10977 -8374,20215 -3123,9238 -4554,15270 -7251,25987 -2697,10717 -4164,17482 -6234,27596 -2058,10114 -3323,15886 -4092,22995 -769,7097 -1278,10267 248,12538 1526,2271 5276,2307 7370,-1183 2082,-3490 1525,-7807 3052,-16264 1538,-8469 2661,-14904 4625,-26058 1963,-11166 3430,-18346 5192,-29761 1762,-11414 3005,-17660 3608,-27312 603,-9664 1195,-14241 -568,-20984 -1774,-6742 -3549,-9972 -8280,-12752 -4732,-2780 -8493,-2188 -15389,-1159 -6896,1041 -10835,3217 -19092,6340 -8267,3135 -13188,5772 -22201,9297 -9013,3525 -14230,5796 -22865,8351 -8647,2544 -13437,3643 -20345,4389 -6920,745 -10267,-225 -14218,-651 -3951,-426 -4259,-1561 -5524,-1479 -1254,71 -1076,1408 -781,1845 284,426 555,249 2235,319 1692,83 3288,-1490 6186,59 2898,1549 5536,2520 8304,7701 2768,5181 4554,9297 5548,18204 993,8907 1052,15200 -579,26342 -1633,11131 -3395,18334 -7594,29359 -4187,11024 -7476,17270 -13366,25763 -5879,8505 -9794,12408 -16039,16726 -6234,4305 -9392,5524 -15152,4838 -5761,-674 -8730,-1739 -13650,-8244 -4909,-6506 -7642,-11569 -10918,-24260 -3277,-12692 -4566,-21410 -5465,-39200 -899,-17790 -639,-29027 946,-49775 1585,-20748 3253,-33025 6955,-53985 3702,-20948 6446,-32375 11556,-50768 5098,-18393 8446,-27407 13969,-41175 5536,-13781 8884,-19541 13686,-27703 4814,-8150 8126,-9829 10338,-13094 2212,-3253 910,-3939 733,-3205 -189,733 -426,1893 -1644,6849 -1230,4956 -1620,9333 -4471,17932 -2839,8599 -5086,14289 -9747,25077 -4660,10787 -7783,17234 -13555,28873 -5772,11639 -9144,18133 -15318,29335 -6175,11190 -9640,16974 -15555,26638 -5914,9652 -9144,14442 -14017,21658 -4874,7215 -7228,9841 -10338,14418 -3111,4566 -5205,5950 -5216,8434 -12,2472 2721,4672 5169,3963z"/>
   <path class="fil0 str0" d="M911916 45458c-1621,1869 -1822,3407 -2189,9226 -378,5820 -1857,15921 343,19860 2200,3928 8599,3821 10658,-189 2058,-4010 236,-14064 -343,-19861 -579,-5807 -864,-7345 -2555,-9155 -1692,-1810 -4294,-1751 -5914,118z"/>
   <path class="fil0 str0" d="M911904 135686c-1372,4483 -1006,11427 -1786,22853 -769,11414 -1360,19931 -2070,34254 -722,14313 -1230,23930 -1526,37343 -296,13413 -390,20073 24,29714 402,9652 -320,13650 1999,18523 2318,4862 5690,7027 9593,5820 3903,-1218 5666,-4885 9900,-11876 4246,-6979 6363,-12894 11284,-23078 4932,-10185 7854,-17388 13354,-27832 5512,-10456 8883,-16631 14182,-24426 5288,-7783 8694,-11190 12290,-14513 3595,-3312 3797,-3182 5678,-2070 1869,1112 2318,2129 3714,7605 1407,5489 2129,10563 3288,19789 1171,9215 1407,15791 2543,26319 1136,10516 1313,16950 3135,26283 1810,9321 2389,14112 5938,20334 3537,6234 6186,9333 11770,10811 5583,1466 9510,236 16134,-3454 6612,-3691 10030,-7476 16950,-14987 6920,-7523 10835,-13071 17672,-22616 6836,-9534 10598,-15815 16501,-25077 5890,-9261 9368,-14632 12988,-21244 3608,-6600 5476,-9344 5086,-11781 -391,-2425 -4589,-3383 -7050,-378 -2461,3004 -3064,7452 -5264,15413 -2200,7961 -4046,14159 -5749,24379 -1703,10232 -2590,16868 -2744,26744 -154,9889 -47,15165 1975,22652 2023,7487 3572,11332 8126,14786 4554,3466 8860,4175 14620,2507 5772,-1656 9107,-4577 14206,-10799 5110,-6222 7724,-10989 11308,-20298 3596,-9297 5240,-15555 6636,-26212 1396,-10658 1455,-17116 343,-27075 -1112,-9959 -2638,-15152 -5926,-22699 -3288,-7557 -5867,-10728 -10504,-15080 -4637,-4342 -7925,-6293 -12692,-6660 -4767,-378 -8505,1443 -11142,4791 -2626,3360 -3702,7914 -2023,11959 1679,4057 4920,6612 10444,8304 5524,1691 9416,1620 17175,154 7759,-1479 12360,-2851 21587,-7535 9226,-4684 14596,-7877 24544,-15885 9948,-8008 15531,-13225 25207,-24154 9676,-10918 14809,-17767 23184,-30458 8375,-12704 12479,-20239 18701,-33025 6221,-12798 8847,-19955 12384,-30931 3549,-10965 4826,-16134 5311,-23941 497,-7807 332,-12041 -2862,-15093 -3182,-3040 -7914,-3300 -13058,-154 -5133,3146 -7523,6932 -12621,15898 -5098,8954 -8067,15141 -12881,28885 -4814,13745 -7499,22593 -11190,39862 -3678,17258 -5465,27762 -7204,46439 -1751,18666 -2247,29264 -1502,46923 734,17672 1716,26803 5181,41400 3466,14597 5973,21433 12148,31606 6162,10161 10220,14300 18701,19245 8469,4933 13827,5926 23668,5465 9830,-473 15555,-2519 25526,-7807 9972,-5275 15460,-9758 24320,-18583 8860,-8836 13378,-14951 19979,-25561 6600,-10610 9510,-17151 13035,-27502 3525,-10349 4578,-15850 4601,-24259 36,-8422 -792,-12752 -4447,-17802 -3655,-5062 -7665,-7191 -13827,-7476 -6163,-284 -10623,1467 -16998,6057 -6364,4601 -10031,8564 -14821,16915 -4802,8339 -7274,14099 -9167,24828 -1880,10728 -2377,17447 -284,28790 2093,11332 3903,17932 10764,27892 6860,9971 13366,14845 23551,21954 10184,7097 17518,9747 27383,13555 9853,3797 17294,5299 21906,5441 4613,141 5205,-2745 1171,-4732 -4033,-1987 -11805,-1574 -21350,-5229 -9534,-3643 -16595,-6293 -26354,-13023 -9747,-6730 -15980,-11296 -22403,-20652 -6422,-9345 -7937,-15496 -9688,-26082 -1751,-10586 -1112,-16974 923,-26851 2035,-9865 4696,-15152 9250,-22497 4542,-7357 8292,-10492 13496,-14242 5205,-3749 8351,-4400 12502,-4518 4164,-130 5820,355 8304,3891 2496,3537 4034,6530 4152,13816 118,7274 -402,12763 -3560,22604 -3158,9841 -5926,16335 -12243,26591 -6304,10244 -10787,16193 -19292,24650 -8505,8458 -13910,12645 -23243,17613 -9344,4980 -14537,6731 -23456,7287 -8919,555 -13389,-119 -21125,-4495 -7736,-4376 -11628,-7831 -17577,-17376 -5938,-9545 -8647,-16134 -12136,-30340 -3501,-14206 -4589,-23266 -5347,-40714 -769,-17434 -284,-27986 1526,-46474 1810,-18488 3643,-28956 7535,-45954 3904,-17009 6825,-25763 11947,-39046 5134,-13295 8647,-19281 13721,-27407 5075,-8126 8576,-10374 11639,-13213 3064,-2850 2531,-2839 3702,-1017 1171,1833 2508,3536 2153,10149 -355,6612 -816,12230 -3915,22923 -3111,10682 -5606,17897 -11591,30530 -5985,12621 -10054,20120 -18334,32600 -8269,12491 -13413,19245 -23042,29819 -9617,10587 -15235,15649 -25077,23089 -9853,7452 -15318,10350 -24154,14136 -8847,3797 -13531,4388 -20061,4814 -6541,438 -9274,-1538 -12633,-2661 -3359,-1112 -3182,-2295 -4152,-2922 -958,-639 -1147,-83 -674,-237 473,-154 746,-887 3064,-544 2306,343 4850,-544 8505,2259 3655,2803 6624,5263 9770,11733 3146,6482 4862,11415 5985,20653 1112,9250 1053,15555 -402,25573 -1443,10019 -3312,16040 -6873,24545 -3560,8493 -6565,12751 -10918,17955 -4364,5205 -7215,6624 -10870,8067 -3655,1431 -4696,1407 -7417,-899 -2720,-2294 -4530,-4341 -6186,-10610 -1644,-6269 -2353,-11462 -2070,-20724 296,-9250 1538,-15756 3501,-25550 1976,-9794 4046,-15755 6364,-23420 2330,-7665 5264,-10941 5264,-14892 12,-3951 -2815,-6033 -5216,-4850 -2401,1183 -3076,4318 -6801,10787 -3738,6470 -6246,12302 -11865,21575 -5619,9274 -9462,15507 -16240,24781 -6777,9274 -10953,14632 -17648,21611 -6695,6979 -10468,10113 -15803,13284 -5335,3170 -7180,3501 -10870,2590 -3691,-910 -4920,-2058 -7570,-7144 -2649,-5086 -3951,-9499 -5666,-18299 -1727,-8800 -1987,-15259 -2945,-25703 -958,-10433 -864,-16963 -1845,-26484 -982,-9534 -851,-14466 -3052,-21149 -2200,-6683 -3726,-10539 -7937,-12242 -4223,-1716 -7937,-320 -13141,3714 -5216,4022 -7464,8114 -12905,16394 -5441,8280 -8634,14478 -14312,25017 -5678,10528 -8931,17649 -14088,27632 -5157,9995 -8019,15909 -11698,22296 -3678,6400 -5287,8126 -6718,9653 -1431,1525 213,1727 -414,-2023 -639,-3749 -2058,-7511 -2732,-16725 -674,-9203 -793,-16028 -651,-29335 142,-13295 662,-22923 1348,-37188 687,-14265 1219,-22769 2082,-34149 863,-11379 2803,-18098 2235,-22734 -568,-4637 -3702,-4933 -5074,-450z"/>
  </g>
 </g>
</svg>
