<?xml version="1.0" standalone="no"?><!DOCTYPE svg PUBLIC "-//W3C//DTD SVG 1.1//EN" "http://www.w3.org/Graphics/SVG/1.1/DTD/svg11.dtd"><svg t="1655393383911" class="icon" viewBox="0 0 1024 1024" version="1.1" xmlns="http://www.w3.org/2000/svg" p-id="36452" xmlns:xlink="http://www.w3.org/1999/xlink" width="200" height="200"><defs><style type="text/css"></style></defs><path d="M283.178 160.865h452.58c89.016 0 161.178 72.104 161.178 161.049v470.983c0 88.945-72.162 161.049-161.179 161.049H283.178c-89.016 0-161.178-72.104-161.178-161.05V321.915c0-88.945 72.162-161.05 161.178-161.05z" fill="#7A95EA" p-id="36453"></path><path d="M283.178 185.081c-75.646 0-136.962 61.267-136.962 136.833v470.983c0 75.566 61.316 136.833 136.962 136.833h452.58c75.646 0 136.961-61.267 136.961-136.833V321.914c0-75.566-61.315-136.833-136.962-136.833H283.178z m0-24.216h452.58c89.016 0 161.178 72.104 161.178 161.049v470.983c0 88.945-72.162 161.049-161.179 161.049H283.178c-89.016 0-161.178-72.104-161.178-161.05V321.915c0-88.945 72.162-161.05 161.178-161.05z" fill="#834038" p-id="36454"></path><path d="M366.226 767.501c-85.438 23.225-3.809-185.814-67.782-220.924C247.368 518.545 209.481 474.725 194.92 419.6 177.556 353.856 196.848 285.213 241.653 228.97c10.324-12.96 0.051-77.173 12.948-88.629 10.598-9.413 43.971 33.656 56.139 25.488 30.137-20.23 64.857-36.32 103.01-46.69 44.906-12.207 89.598-15.14 131.185-10.078 17.164 2.09 43.765-40.336 59.668-35.613 15.223 4.522 19.81 56.087 33.514 62.861 55.968 27.67 97.763 73.473 113.232 132.038 17.221 65.199-1.61 133.25-45.625 189.23-7.973 26.728 57.29 113.348 33.31 130.544-32.007 22.953-331.086 168.04-372.807 179.38z" fill="#FFFEFF" p-id="36455"></path><path d="M448.919 119.115c31.05-3.606 61.608-3.27 90.791 0.617 18.343 2.443 46.035-41.104 63.074-35.95 16.312 4.933 22.035 58.457 36.76 65.7 54.492 26.807 96.815 68.854 117.26 121.855-32.331 25.617-73.003 40.88-117.183 40.88-105.116 0-190.368-86.397-190.702-193.102z" fill="#8DABFF" p-id="36456"></path><path d="M636.718 306.162c39.827 0 77.688-12.845 108.85-36.197-17.488-50.755-56.737-92.161-110.855-118.272-7.611-3.672-11.324-11.42-18.52-32.54l-0.776-2.28c-6.575-19.31-10.598-27.323-14.568-28.474-4.047-1.173-10.699 3.18-25.978 16.674l-1.142 1.008c-16.532 14.575-24.344 19.69-33.844 18.561-27.597-3.278-56.166-3.144-84.913 0.483 0.41 100.088 81.66 181.037 181.746 181.037zM447.776 114.242c31.328-4.418 62.528-4.775 92.637-1.165 4.553 0.545 11.384-3.969 24.8-15.908l1.135-1.01c19.515-17.395 26.766-22.185 36.829-19.241 9.557 2.796 13.804 11.334 22.084 35.88l0.774 2.295c5.823 17.25 9.345 24.666 12.772 26.335 58.006 28.248 99.928 73.682 117.716 129.528l1.152 3.617-3.009 2.377c-33.686 26.614-75.189 41.32-118.905 41.32-106.57 0-192.897-87.081-192.897-194.425 0-1.404 0.015-2.808 0.045-4.209l0.1-4.722 4.767-0.673z" fill="#834038" p-id="36457"></path><path d="M252.436 184.046l-0.042 2.515c-0.496 29.73-1.415 39.061-7.373 46.47C200.466 288.435 183.66 353.81 199.838 414.486c13.567 50.883 48.833 93.077 99.448 120.595 27.568 14.988 33.334 47.545 31.199 115.907-0.108 3.451-0.211 6.464-0.416 12.24-1.495 42.141-1.198 58.556 2.624 73.278 4.257 16.398 11.698 21.416 28.096 17 39.223-10.56 337.975-153.478 370.609-176.661 5.046-3.585 0.447-20.412-16.266-56.465l-0.93-2.005c-18.736-40.362-23.4-53.34-19.443-66.478l0.479-1.59 1.031-1.3c43.764-55.137 60.152-119.936 44.108-180.108-14.41-54.044-53.31-98.249-108.844-125.446-8.525-4.175-12.177-11.912-19.513-33.767l-0.75-2.235c-5.865-17.485-9.662-25.163-11.938-25.832-2.283-0.672-8.524 3.475-22.119 15.662l-1.105 0.99c-16.803 15.037-24.624 20.235-35.128 18.968-41.499-5.003-85.133-1.806-128.098 9.763-36.592 9.853-70.61 25.214-100.624 45.172-9.936 6.607-17.605 2.583-37.517-12.506l-0.8-0.606c-8.348-6.333-11.582-8.635-15.078-10.519-1.094-0.59-2.015-1.005-2.727-1.259-2.116 3.928-3.334 15.55-3.7 36.762z m477.47 327.026l0.933 2.013c9.572 20.649 14.129 31.57 17.087 42.395 4.467 16.343 3.39 28.469-6.506 35.498-34.28 24.352-334.895 168.162-376.132 179.265-26.22 7.06-42.796-4.119-49.354-29.378-4.429-17.061-4.736-34.073-3.17-78.252 0.204-5.753 0.307-8.747 0.414-12.167 1.904-60.967-3.208-89.833-22.157-100.135-54.642-29.707-93.069-75.684-107.913-131.356-17.679-66.305 0.567-137.281 48.424-196.791 0.877-1.09 1.94-5.172 2.572-11.594 0.57-5.78 0.76-11.312 0.977-24.299l0.042-2.524c0.545-31.583 2.019-43.207 10.405-50.586 6.06-5.333 13.296-4.323 21.544 0.122 4.611 2.485 8.153 5.005 17.328 11.966l0.793 0.6c7.127 5.402 10.909 8.04 14.396 9.871 1.641 0.861 2.941 1.365 3.808 1.54 31.4-20.764 66.884-36.734 104.987-46.994 45.095-12.143 90.959-15.504 134.667-10.234 3.069 0.37 9.392-3.832 21.516-14.682l1.094-0.98C585.677 66.426 592.866 61.65 604.216 64.99c10.794 3.176 14.985 11.65 23.47 36.945l0.747 2.23c5.24 15.608 8.575 22.674 10.71 23.72 59.86 29.315 102.203 77.433 117.964 136.544 17.381 65.19 0.042 134.906-46.068 193.822-1.068 7.167 4.166 21.154 18.866 52.821z" fill="#834038" p-id="36458"></path><path d="M261.243 624a118.054 96.865 90 1 0 193.73 0 118.054 96.865 90 1 0-193.73 0Z" fill="#8DABFF" p-id="36459"></path><path d="M358.108 749.554c-58.003 0-104.365-56.504-104.365-125.554 0-69.05 46.362-125.554 104.365-125.554 58.003 0 104.364 56.504 104.364 125.554 0 69.05-46.361 125.554-104.364 125.554z m0-15c48.99 0 89.364-49.205 89.364-110.554 0-61.349-40.373-110.554-89.364-110.554-48.991 0-89.365 49.205-89.365 110.554 0 61.349 40.374 110.554 89.365 110.554z" fill="#834038" p-id="36460"></path><path d="M374.059 305.107c-13.203 2.726-25.626-0.012-27.749-6.117-2.123-6.104 6.86-13.263 20.062-15.989 13.203-2.726 25.627 0.013 27.75 6.117 2.122 6.104-6.86 13.263-20.063 15.989z" fill="#FFFFFF" p-id="36461"></path><path d="M501.076 346.312c0.044-0.085 0.09-0.17 0.139-0.253 3.689-6.435 19.639-3.477 31.327 3.32 9.655 5.613 11.767 12.211 7.706 19.295-3.755 6.55-15.253 5.855-25.86-0.312-3.43-1.995-6.413-4.355-8.75-6.855-0.6 3.41-1.831 7.066-3.65 10.66-5.088 10.058-17.46 15.195-24.66 11.5-6.491-3.33-5.178-8.642 2.09-23.008 5.557-10.982 14.81-17.862 21.527-14.415l0.13 0.068z m-4.072 23.37c4.35-8.597 4.413-16.963 1.38-18.52-2.997-1.537-9.64 3.401-13.981 11.981-5.506 10.882-6.43 14.622-4.514 15.605 4.244 2.178 13.337-1.598 17.115-9.066z m20.203-6.098c8.273 4.81 16.498 5.308 18.193 2.351 2.492-4.346 1.437-7.643-5.677-11.78-9.113-5.298-22.293-7.742-23.66-5.358-1.718 2.996 2.852 9.966 11.144 14.787z" fill="#834038" p-id="36462"></path><path d="M591.189 263.784c-15.046 0-27.244-6.776-27.244-15.135 0-8.36 12.198-15.135 27.244-15.135s27.243 6.776 27.243 15.135-12.197 15.135-27.243 15.135z" fill="#FFFFFF" p-id="36463"></path><path d="M373.446 302.143c11.647-2.405 19.098-8.344 17.816-12.03-1.457-4.192-12.389-6.602-24.277-4.147-11.646 2.404-19.098 8.343-17.816 12.03 1.458 4.192 12.39 6.601 24.278 4.147z m1.225 5.929c-14.517 2.997-28.432-0.07-31.22-8.088-2.963-8.521 7.55-16.9 22.31-19.947 14.516-2.998 28.432 0.07 31.22 8.087 2.963 8.521-7.55 16.9-22.31 19.948zM591.189 260.757c13.596 0 24.216-5.9 24.216-12.108 0-6.209-10.62-12.108-24.216-12.108-13.597 0-24.217 5.9-24.217 12.108s10.62 12.108 24.217 12.108z m0 6.054c-16.496 0-30.27-7.653-30.27-18.162 0-10.51 13.774-18.163 30.27-18.163 16.495 0 30.27 7.653 30.27 18.163 0 10.51-13.775 18.162-30.27 18.162zM508.287 420.025c-0.984 1.383-2.73 1.559-3.898 0.393-1.169-1.165-1.318-3.231-0.333-4.614l6.435-9.038c0.885-2.321 2.018-3.739 3.948-3.739 1.539 0 2.73 0.98 3.983 2.714l8.09 7.173c1.224 1.084 1.473 3.137 0.557 4.584-0.916 1.448-2.65 1.743-3.873 0.658l-8.325-7.38-6.584 9.249zM402.468 210.994c2.425-2.372 6.231-2.241 8.502 0.292 2.27 2.532 2.145 6.508-0.28 8.88l-24.294 23.76c-2.425 2.37-6.231 2.24-8.502-0.293-2.27-2.532-2.145-6.508 0.28-8.88l24.294-23.76zM521.19 203.243c-3.135 0-5.677-2.71-5.677-6.054 0-3.343 2.542-6.054 5.677-6.054h37.078c3.136 0 5.677 2.71 5.677 6.054 0 3.344-2.541 6.054-5.677 6.054h-37.078z" fill="#834038" p-id="36464"></path><path d="M134.16 853.226c23.67 59.525 81.839 101.608 149.844 101.608h452.58c89.016 0 161.178-72.104 161.178-161.05V441.926c-513.944 261.94-768.478 399.04-763.602 411.301z" fill="#ADC1FF" p-id="36465"></path><path d="M873.545 793.785c0 75.566-61.315 136.833-136.962 136.833H284.004c-51.067 0-96.874-28.179-120.452-71.623 6.767-4.592 16.14-10.482 28.023-17.59 30.83-18.445 77.972-44.762 141.312-78.88 121.196-65.28 301.433-158.978 540.658-281.066v312.326zM134.16 853.226c23.67 59.525 81.839 101.608 149.844 101.608h452.58c89.016 0 161.178-72.104 161.178-161.05V441.926c-513.944 261.94-768.478 399.04-763.602 411.301z" fill="#834038" p-id="36466"></path><path d="M840.084 916.55c-28.115 23.877-64.537 38.284-104.327 38.284H283.178C194.162 954.834 122 882.73 122 793.784V441.926C614.014 747.054 853.375 905.262 840.084 916.55z" fill="#ADC1FF" p-id="36467"></path><path d="M146.216 793.785c0 75.566 61.316 136.833 136.962 136.833h452.58c24.48 0 47.931-6.421 68.452-18.28-4.505-3.633-9.866-7.785-16.057-12.426-27.794-20.839-71.5-50.972-130.974-90.282-113.377-74.937-283.718-183.01-510.963-324.173v308.328zM840.084 916.55c-28.115 23.877-64.537 38.284-104.327 38.284H283.178C194.162 954.834 122 882.73 122 793.784V441.926C614.014 747.054 853.375 905.262 840.084 916.55z" fill="#834038" p-id="36468"></path></svg>