<?xml version="1.0" encoding="utf-8"?>
<!-- Generator: Adobe Illustrator 16.0.0, SVG Export Plug-In . SVG Version: 6.00 Build 0)  -->
<!DOCTYPE svg PUBLIC "-//W3C//DTD SVG 1.1//EN" "http://www.w3.org/Graphics/SVG/1.1/DTD/svg11.dtd">
<svg version="1.1" id="图层_1" xmlns="http://www.w3.org/2000/svg" xmlns:xlink="http://www.w3.org/1999/xlink" x="0px" y="0px"
	 width="30px" height="30px" viewBox="85 85 30 30" enable-background="new 85 85 30 30" xml:space="preserve">
<path fill="#FFCE54" d="M99.713,88.573l0.573,1.085l-11.655,6.137l-0.572-1.085L99.713,88.573z"/>
<path fill="#F6BB42" d="M100.286,88.575l11.654,6.135l-0.572,1.085L99.713,89.66L100.286,88.575z"/>
<path fill="#A0D468" d="M114.724,107.521c0,0.341-0.275,0.614-0.615,0.614H85.889c-0.339,0-0.613-0.273-0.613-0.614V95.252
	c0-0.339,0.274-0.613,0.613-0.613h28.219c0.34,0,0.615,0.274,0.615,0.613V107.521z"/>
<path fill="#434A54" d="M91.207,98.689c-1.632,0-2.729,1.186-2.729,2.954c0,0.86,0.259,1.6,0.75,2.133
	c0.491,0.537,1.17,0.82,1.964,0.82c0.791,0,1.468-0.283,1.961-0.82c0.492-0.535,0.751-1.272,0.751-2.133
	C93.904,99.903,92.795,98.689,91.207,98.689z M91.207,103.666c-1.009,0-1.636-0.782-1.636-2.039c0-1.22,0.636-2.009,1.621-2.009
	c0.484,0,0.892,0.187,1.178,0.541c0.29,0.356,0.441,0.868,0.441,1.476C92.811,102.87,92.181,103.666,91.207,103.666z M97.562,98.82
	h-2.458v5.644h1.086v-2.126h1.503c1.142,0,1.852-0.682,1.852-1.774C99.545,99.455,98.823,98.82,97.562,98.82z M96.19,99.742h1.208
	c0.74,0,1.085,0.268,1.085,0.845c0,0.564-0.336,0.85-1,0.85H96.19V99.742z M101.608,102.003h2.803v-0.9h-2.803v-1.351h3.02V98.82
	h-4.098v5.644h4.145v-0.945h-3.066V102.003z M109.554,98.82v3.935l-2.457-3.935h-1.107v5.644h1.031v-3.927l2.49,3.927h1.09V98.82
	H109.554z"/>
<path fill="#434A54" d="M101.841,89.117c0,1.017-0.824,1.84-1.84,1.84c-1.019,0-1.842-0.824-1.842-1.84s0.823-1.84,1.842-1.84
	C101.017,87.277,101.841,88.101,101.841,89.117z"/>
</svg>
