<?xml version="1.0" encoding="utf-8"?>
<!-- Generator: Adobe Illustrator 16.0.0, SVG Export Plug-In . SVG Version: 6.00 Build 0)  -->
<!DOCTYPE svg PUBLIC "-//W3C//DTD SVG 1.1//EN" "http://www.w3.org/Graphics/SVG/1.1/DTD/svg11.dtd">
<svg version="1.1" id="图层_1" xmlns="http://www.w3.org/2000/svg" xmlns:xlink="http://www.w3.org/1999/xlink" x="0px" y="0px"
	 width="35px" height="30px" viewBox="82.5 85 35 30" enable-background="new 82.5 85 35 30" xml:space="preserve">
<path fill="#FFCE54" d="M99.697,92.307l0.605,1.146l-12.308,6.48l-0.604-1.146L99.697,92.307z"/>
<path fill="#F6BB42" d="M100.302,92.309l12.307,6.479l-0.605,1.146l-12.307-6.479L100.302,92.309z"/>
<path fill="#A0D468" d="M115.547,112.314c0,0.359-0.291,0.648-0.648,0.648H85.1c-0.358,0-0.647-0.289-0.647-0.648V99.359
	c0-0.358,0.289-0.647,0.647-0.647h29.799c0.357,0,0.648,0.29,0.648,0.647V112.314z"/>
<path fill="#434A54" d="M90.714,102.989c-1.724,0-2.882,1.252-2.882,3.118c0,0.908,0.273,1.689,0.792,2.252
	c0.519,0.567,1.236,0.866,2.074,0.866c0.834,0,1.55-0.299,2.071-0.866c0.52-0.564,0.793-1.344,0.793-2.252
	C93.563,104.27,92.392,102.989,90.714,102.989z M90.714,108.244c-1.065,0-1.727-0.826-1.727-2.153c0-1.288,0.672-2.121,1.711-2.121
	c0.511,0,0.942,0.197,1.244,0.571c0.306,0.377,0.466,0.917,0.466,1.559C92.408,107.403,91.744,108.244,90.714,108.244z
	 M97.425,103.127H94.83v5.96h1.147v-2.245h1.588c1.206,0,1.955-0.72,1.955-1.874C99.52,103.798,98.757,103.127,97.425,103.127z
	 M95.977,104.101h1.275c0.781,0,1.146,0.282,1.146,0.893c0,0.596-0.355,0.896-1.055,0.896h-1.366V104.101z M101.699,106.488h2.959
	v-0.951h-2.959v-1.426h3.188v-0.984h-4.326v5.96h4.375v-0.998h-3.236V106.488z M110.088,103.127v4.155l-2.594-4.155h-1.17v5.96h1.09
	v-4.146l2.629,4.146h1.15v-5.96H110.088z"/>
<path fill="#434A54" d="M101.943,92.881c0,1.073-0.87,1.943-1.942,1.943c-1.076,0-1.945-0.87-1.945-1.943
	c0-1.074,0.869-1.943,1.945-1.943C101.073,90.938,101.943,91.808,101.943,92.881z"/>
</svg>
