<?xml version="1.0" encoding="utf-8"?>
<!-- Generator: Adobe Illustrator 16.0.0, SVG Export Plug-In . SVG Version: 6.00 Build 0)  -->
<!DOCTYPE svg PUBLIC "-//W3C//DTD SVG 1.1//EN" "http://www.w3.org/Graphics/SVG/1.1/DTD/svg11.dtd">
<svg version="1.1" id="Layer_1" xmlns="http://www.w3.org/2000/svg" xmlns:xlink="http://www.w3.org/1999/xlink" x="0px" y="0px"
	 width="64px" height="64px" viewBox="274 364 64 64" enable-background="new 274 364 64 64" xml:space="preserve">
<g>
	<path fill="#E0E0E0" d="M320.98,386.691c0.427,0,0.853,0.349,0.853,0.775v0.387c0,0.427-0.426,0.775-0.853,0.775h-1.589h-30.964
		c-0.426,0-0.736-0.348-0.736-0.775v-0.387c0-0.426,0.311-0.775,0.736-0.775h0.039h1.163h3.1H320.98z"/>
	<path fill="#E0E0E0" d="M317.105,382.428c2.131,0,3.952,1.744,3.952,3.875v0.388h-0.077h-28.212h-3.101h-1.163v-0.388
		c0-2.132,1.705-3.875,3.836-3.875h11.665h1.55H317.105z"/>
</g>
<path fill="#E53935" d="M292.109,417.305l-2.287-28.444l29.606-0.078l-2.285,28.521c-0.117,1.706-1.59,3.102-3.295,3.102h-18.446
	C293.698,420.406,292.186,419.011,292.109,417.305z M291.992,413.431h9.611c0.853,0,1.627-0.698,1.627-1.551v-15.889
	c0-0.852-0.775-1.55-1.627-1.55h-6.51L291.992,413.431z"/>
<path fill="#BDBDBD" d="M317.299,371.577c0.426-0.078,0.852,0.193,0.93,0.62c0.077,0.426-0.155,0.814-0.582,0.931l-12.091,2.519
	v6.782h-1.55v-7.402l0,0h-0.039c0-0.039-0.039-0.077,0-0.155c0,0,0-0.039,0-0.078c0-0.039,0-0.039,0.039-0.077
	c0-0.039,0.039-0.039,0.039-0.078c0-0.039,0.038-0.039,0.038-0.078s0.039-0.039,0.039-0.039c0.039,0,0.039-0.039,0.039-0.078
	l0.039-0.039c0.039-0.039,0.039-0.039,0.077-0.039s0.039-0.039,0.039-0.039c0.039,0,0.039-0.039,0.078-0.039
	c0.039,0,0.078-0.039,0.117-0.039c0.038,0,0.038,0,0.038,0L317.299,371.577z"/>
<path fill="#FFFFFF" d="M301.603,394.441c0.853,0,1.627,0.698,1.627,1.55v15.889c0,0.853-0.775,1.551-1.627,1.551h-9.611
	l3.101-18.99H301.603L301.603,394.441z"/>
<path fill="#FFFFFF" d="M313.811,420.793h-18.447c-1.899,0-3.565-1.55-3.682-3.448l-2.286-28.213c0-0.232,0.155-0.387,0.349-0.426
	c0.233-0.039,0.388,0.155,0.426,0.349l2.287,28.212c0.078,1.511,1.395,2.752,2.906,2.752h18.447c1.511,0,2.828-1.241,2.906-2.714
	l2.286-28.483c0-0.194,0.194-0.387,0.426-0.349c0.233,0,0.388,0.194,0.35,0.426l-2.286,28.483
	C317.375,419.243,315.748,420.793,313.811,420.793z"/>
<path fill="#FFFFFF" d="M321.057,387.078c-0.231,0-0.387-0.155-0.387-0.387v-0.388c0-1.899-1.628-3.488-3.565-3.488h-11.549
	c-0.233,0-0.387-0.155-0.387-0.388s0.154-0.388,0.387-0.388h11.549c2.364,0,4.34,1.938,4.34,4.263v0.388
	C321.445,386.923,321.289,387.078,321.057,387.078z"/>
<path fill="#FFFFFF" d="M288.505,387.078c-0.232,0-0.388-0.155-0.388-0.387v-0.388c0-2.364,1.899-4.263,4.224-4.263h11.665
	c0.232,0,0.387,0.155,0.387,0.388s-0.155,0.388-0.387,0.388h-11.665c-1.898,0-3.449,1.55-3.449,3.488v0.388
	C288.892,386.923,288.738,387.078,288.505,387.078z"/>
<path fill="#FFFFFF" d="M320.98,389.016h-32.553c-0.62,0-1.124-0.504-1.124-1.163v-0.387c0-0.659,0.465-1.163,1.124-1.163h1.202
	c0.232,0,0.387,0.155,0.387,0.388c0,0.232-0.155,0.387-0.387,0.387h-1.202c-0.232,0-0.348,0.194-0.348,0.388v0.387
	c0,0.194,0.116,0.388,0.348,0.388h32.553c0.232,0,0.465-0.194,0.465-0.388v-0.387c0-0.194-0.232-0.388-0.465-0.388h-28.212
	c-0.232,0-0.388-0.155-0.388-0.387c0-0.233,0.155-0.388,0.388-0.388h28.212c0.658,0,1.239,0.542,1.239,1.163v0.387
	C322.219,388.473,321.638,389.016,320.98,389.016z"/>
<path fill="#FFFFFF" d="M305.556,382.815c-0.233,0-0.387-0.155-0.387-0.388v-6.782c0-0.193,0.116-0.349,0.31-0.388l12.091-2.519
	c0.116-0.039,0.193-0.078,0.232-0.155s0.078-0.193,0.039-0.31c-0.039-0.193-0.271-0.349-0.466-0.31l-12.71,2.674
	c0,0-0.039,0-0.078,0l-0.039,0.039h-0.038l0,0l-0.039,0.039l0,0l0,0l0,0c0,0,0,0-0.039,0.038c0,0,0,0.039-0.039,0.039l0,0
	l-0.039,0.039l0,0c0,0.039,0.039,0.078,0.039,0.117v7.479c0,0.232-0.155,0.388-0.387,0.388s-0.388-0.155-0.388-0.388v-7.286
	c0-0.039-0.039-0.078-0.039-0.116c0-0.039-0.039-0.116,0-0.194c0-0.039,0.039-0.116,0.039-0.155c0,0,0-0.039,0.039-0.078
	l0.039-0.077c0.039-0.039,0.039-0.078,0.078-0.117l0.039-0.039c0-0.039,0.039-0.078,0.077-0.078l0.039-0.039
	c0.039-0.039,0.078-0.078,0.078-0.078c0.039-0.039,0.039-0.039,0.077-0.078l0.039-0.038c0,0,0.039-0.039,0.078-0.039
	c0.039-0.039,0.077-0.039,0.116-0.039c0.078-0.039,0.117-0.039,0.155-0.039l0.077-0.039l12.711-2.674
	c0.621-0.116,1.24,0.271,1.396,0.892c0.077,0.31,0,0.62-0.155,0.891c-0.155,0.271-0.426,0.426-0.736,0.504l-11.78,2.48v6.433
	C305.944,382.66,305.789,382.815,305.556,382.815z"/>
<path fill="#FFFFFF" d="M301.603,413.817h-9.611c-0.232,0-0.387-0.155-0.387-0.387c0-0.233,0.155-0.389,0.387-0.389h9.611
	c0.659,0,1.24-0.543,1.24-1.162v-15.889c0-0.62-0.582-1.163-1.24-1.163h-6.51c-0.232,0-0.388-0.155-0.388-0.388
	c0-0.232,0.155-0.387,0.388-0.387h6.51c1.085,0,2.015,0.891,2.015,1.938v15.889C303.618,412.927,302.688,413.817,301.603,413.817z"
	/>
<path d="M291.992,394.829h-1.55c-0.233,0-0.388-0.155-0.388-0.388c0-0.232,0.155-0.387,0.388-0.387h1.55
	c0.232,0,0.388,0.155,0.388,0.387C292.38,394.674,292.225,394.829,291.992,394.829z"/>
</svg>
