<?xml version="1.0" encoding="utf-8"?>
<!-- Generator: Adobe Illustrator 16.0.0, SVG Export Plug-In . SVG Version: 6.00 Build 0)  -->
<!DOCTYPE svg PUBLIC "-//W3C//DTD SVG 1.1//EN" "http://www.w3.org/Graphics/SVG/1.1/DTD/svg11.dtd">
<svg version="1.1" id="Layer_1" xmlns="http://www.w3.org/2000/svg" xmlns:xlink="http://www.w3.org/1999/xlink" x="0px" y="0px"
	 width="64px" height="64px" viewBox="274 364 64 64" enable-background="new 274 364 64 64" xml:space="preserve">
<g>
	<path fill="#E0E0E0" d="M319.627,387.554c0.387,0,0.773,0.316,0.773,0.703v0.351c0,0.387-0.387,0.703-0.773,0.703h-1.441h-28.092
		c-0.387,0-0.668-0.316-0.668-0.703v-0.351c0-0.387,0.282-0.703,0.668-0.703h0.035h1.055h2.813H319.627z"/>
	<path fill="#E0E0E0" d="M316.112,383.686c1.933,0,3.585,1.582,3.585,3.516v0.352h-0.069h-25.596h-2.813h-1.055v-0.352
		c0-1.934,1.547-3.516,3.48-3.516h10.583h1.406H316.112z"/>
</g>
<path fill="#E53935" d="M293.434,415.328l-2.074-25.806l26.86-0.07l-2.073,25.876c-0.106,1.548-1.442,2.814-2.989,2.814h-16.735
	C294.875,418.143,293.504,416.876,293.434,415.328z"/>
<path fill="#BDBDBD" d="M316.287,373.842c0.387-0.07,0.772,0.175,0.844,0.562c0.07,0.387-0.141,0.739-0.528,0.844l-10.97,2.285
	v6.153h-1.406v-6.715l0,0h-0.035c0-0.036-0.035-0.07,0-0.141c0,0,0-0.035,0-0.07c0-0.036,0-0.036,0.035-0.07
	c0-0.036,0.036-0.036,0.036-0.071s0.035-0.035,0.035-0.07s0.035-0.035,0.035-0.035c0.035,0,0.035-0.035,0.035-0.07l0.036-0.035
	c0.035-0.035,0.035-0.035,0.07-0.035s0.035-0.036,0.035-0.036c0.035,0,0.035-0.035,0.07-0.035s0.07-0.035,0.106-0.035
	c0.034,0,0.034,0,0.034,0L316.287,373.842z"/>
<path fill="#FFFFFF" d="M313.123,418.493h-16.736c-1.723,0-3.234-1.406-3.34-3.129l-2.074-25.596c0-0.21,0.14-0.351,0.316-0.387
	c0.211-0.035,0.352,0.141,0.387,0.316l2.075,25.596c0.07,1.37,1.266,2.496,2.637,2.496h16.736c1.37,0,2.565-1.126,2.637-2.462
	l2.073-25.841c0-0.176,0.177-0.351,0.387-0.316c0.212,0,0.352,0.176,0.317,0.387l-2.074,25.842
	C316.357,417.087,314.881,418.493,313.123,418.493z"/>
<path fill="#FFFFFF" d="M319.697,387.905c-0.21,0-0.351-0.141-0.351-0.352v-0.352c0-1.723-1.477-3.165-3.234-3.165h-10.479
	c-0.211,0-0.351-0.141-0.351-0.352s0.14-0.352,0.351-0.352h10.479c2.145,0,3.938,1.758,3.938,3.868v0.352
	C320.049,387.764,319.907,387.905,319.697,387.905z"/>
<path fill="#FFFFFF" d="M290.164,387.905c-0.211,0-0.352-0.141-0.352-0.352v-0.352c0-2.145,1.723-3.868,3.833-3.868h10.583
	c0.211,0,0.352,0.141,0.352,0.352s-0.141,0.352-0.352,0.352h-10.583c-1.722,0-3.129,1.407-3.129,3.165v0.352
	C290.515,387.764,290.375,387.905,290.164,387.905z"/>
<path fill="#FFFFFF" d="M319.627,389.663h-29.534c-0.563,0-1.02-0.457-1.02-1.055v-0.351c0-0.598,0.422-1.055,1.02-1.055h1.09
	c0.211,0,0.352,0.14,0.352,0.352c0,0.21-0.141,0.352-0.352,0.352h-1.09c-0.211,0-0.316,0.176-0.316,0.352v0.351
	c0,0.176,0.105,0.352,0.316,0.352h29.534c0.211,0,0.422-0.176,0.422-0.352v-0.351c0-0.176-0.211-0.352-0.422-0.352h-25.596
	c-0.211,0-0.352-0.141-0.352-0.352c0-0.211,0.141-0.352,0.352-0.352h25.596c0.597,0,1.124,0.492,1.124,1.055v0.351
	C320.751,389.171,320.224,389.663,319.627,389.663z"/>
<path fill="#FFFFFF" d="M305.633,384.038c-0.211,0-0.351-0.141-0.351-0.352v-6.153c0-0.175,0.105-0.316,0.28-0.352l10.971-2.285
	c0.105-0.036,0.175-0.07,0.21-0.141c0.036-0.071,0.071-0.176,0.036-0.282c-0.036-0.175-0.246-0.316-0.423-0.281l-11.532,2.426
	c0,0-0.035,0-0.07,0l-0.036,0.035h-0.034l0,0l-0.036,0.036l0,0l0,0l0,0c0,0,0,0-0.035,0.034c0,0,0,0.036-0.035,0.036l0,0
	l-0.035,0.035l0,0c0,0.035,0.035,0.07,0.035,0.105v6.786c0,0.211-0.141,0.352-0.352,0.352c-0.21,0-0.352-0.141-0.352-0.352v-6.61
	c0-0.035-0.035-0.071-0.035-0.105c0-0.036-0.035-0.105,0-0.176c0-0.035,0.035-0.105,0.035-0.141c0,0,0-0.035,0.035-0.07l0.035-0.07
	c0.035-0.035,0.035-0.07,0.071-0.105l0.035-0.035c0-0.036,0.035-0.07,0.07-0.07l0.035-0.035c0.035-0.035,0.07-0.07,0.07-0.07
	c0.036-0.035,0.036-0.035,0.07-0.071l0.035-0.034c0,0,0.035-0.036,0.071-0.036c0.035-0.035,0.07-0.035,0.105-0.035
	c0.07-0.035,0.105-0.035,0.141-0.035l0.07-0.035l11.532-2.426c0.563-0.105,1.125,0.247,1.267,0.809c0.069,0.281,0,0.563-0.142,0.809
	c-0.141,0.246-0.386,0.387-0.668,0.457l-10.688,2.25v5.836C305.985,383.897,305.845,384.038,305.633,384.038z"/>
</svg>
