<?xml version="1.0" encoding="utf-8"?>
<!-- Generator: Adobe Illustrator 16.0.0, SVG Export Plug-In . SVG Version: 6.00 Build 0)  -->
<!DOCTYPE svg PUBLIC "-//W3C//DTD SVG 1.1//EN" "http://www.w3.org/Graphics/SVG/1.1/DTD/svg11.dtd">
<svg version="1.1" id="图层_1" xmlns="http://www.w3.org/2000/svg" xmlns:xlink="http://www.w3.org/1999/xlink" x="0px" y="0px"
	 width="56.5px" height="35px" viewBox="-14.313 165.75 56.5 35" enable-background="new -14.313 165.75 56.5 35"
	 xml:space="preserve">
<path fill="#FC7032" d="M32.938,171.896v23.334c0,2.197-2.286,3.477-3.936,2.202l-4.835-3.73v1.528c0,2.197-2.286,3.477-3.936,2.202
	L5.109,185.766c-1.396-1.078-1.396-3.328,0-4.406l15.121-11.667c1.65-1.273,3.936,0.006,3.936,2.203v1.527l4.833-3.73
	C30.649,168.419,32.938,169.698,32.938,171.896z M20.264,176.96c-0.489-0.86-1.528-1.127-2.322-0.597
	c0,0.002-0.001,0.002-0.002,0.003l-6.927,4.646c-0.793,0.531-1.039,1.658-0.549,2.519c0,0.002,0.001,0.003,0.002,0.003
	c0.308,0.54,0.852,0.869,1.437,0.869c0.313,0,0.62-0.096,0.886-0.275l6.926-4.646C20.508,178.948,20.754,177.82,20.264,176.96
	L20.264,176.96z"/>
<path fill="#FF8345" d="M20.228,169.692c1.65-1.273,3.936,0.006,3.936,2.203v1.527l4.835-3.73c1.65-1.273,3.936,0.006,3.936,2.203
	v23.334c0,2.197-2.286,3.477-3.936,2.202l-4.835-3.73v1.528c0,0.666-0.212,1.247-0.549,1.697
	c-5.576-2.127-10.065-6.757-12.312-12.65c0.489,0.204,1.038,0.146,1.483-0.154l6.926-4.646c0.793-0.531,1.04-1.661,0.547-2.521
	c-0.492-0.861-1.532-1.128-2.325-0.595l-6.927,4.646c-0.231,0.154-0.414,0.363-0.549,0.599c-0.315-1.255-0.534-2.553-0.644-3.885
	L20.228,169.692z"/>
<path fill="#FF9552" d="M24.164,171.896v1.527l4.835-3.73c1.65-1.273,3.936,0.006,3.936,2.203v18.028
	c-5.885-1.001-10.946-4.685-14.096-9.859l0.876-0.585c0.793-0.531,1.039-1.661,0.547-2.522c-0.492-0.86-1.531-1.128-2.325-0.594
	l-0.724,0.486c-0.511-1.241-0.923-2.542-1.222-3.89l4.237-3.268C21.878,168.419,24.164,169.698,24.164,171.896z"/>
<path fill="#FFA56A" d="M24.67,173.033l4.329-3.341c1.65-1.273,3.936,0.006,3.936,2.203v8.371
	C29.65,178.671,26.803,176.179,24.67,173.033z M22.664,169.416c0.854,0.402,1.5,1.313,1.5,2.479v0.366
	C23.604,171.356,23.103,170.407,22.664,169.416z"/>
</svg>
