<?xml version="1.0" encoding="utf-8"?>
<!-- Generator: Adobe Illustrator 16.0.0, SVG Export Plug-In . SVG Version: 6.00 Build 0)  -->
<!DOCTYPE svg PUBLIC "-//W3C//DTD SVG 1.1//EN" "http://www.w3.org/Graphics/SVG/1.1/DTD/svg11.dtd">
<svg version="1.1" id="图层_1" xmlns="http://www.w3.org/2000/svg" xmlns:xlink="http://www.w3.org/1999/xlink" x="0px" y="0px"
	 width="50px" height="35px" viewBox="-7.813 165.75 50 35" enable-background="new -7.813 165.75 50 35" xml:space="preserve">
<path fill="#FC7032" d="M4.144,171.896v23.334c0,2.197,2.276,3.477,3.919,2.202l4.814-3.73v1.528c0,2.197,2.276,3.477,3.918,2.202
	l15.055-11.666c1.39-1.078,1.39-3.328,0-4.406l-15.055-11.667c-1.643-1.273-3.918,0.006-3.918,2.203v1.527l-4.812-3.73
	C6.422,168.419,4.144,169.698,4.144,171.896z M16.762,176.96c0.487-0.86,1.522-1.127,2.312-0.597c0,0.002,0.001,0.002,0.003,0.003
	l6.896,4.646c0.79,0.531,1.034,1.658,0.546,2.519c0,0.002-0.001,0.003-0.002,0.003c-0.306,0.54-0.848,0.869-1.431,0.869
	c-0.312,0-0.617-0.096-0.882-0.275l-6.896-4.646C16.519,178.948,16.274,177.82,16.762,176.96L16.762,176.96z"/>
<path fill="#FF8345" d="M16.798,169.692c-1.643-1.273-3.918,0.006-3.918,2.203v1.527l-4.814-3.73
	c-1.643-1.273-3.919,0.006-3.919,2.203v23.334c0,2.197,2.276,3.477,3.919,2.202l4.814-3.73v1.528c0,0.666,0.211,1.247,0.547,1.697
	c5.551-2.127,10.021-6.757,12.258-12.65c-0.487,0.204-1.034,0.146-1.477-0.154l-6.896-4.646c-0.79-0.531-1.035-1.661-0.545-2.521
	c0.49-0.861,1.525-1.128,2.315-0.595l6.896,4.646c0.23,0.154,0.412,0.363,0.547,0.599c0.314-1.255,0.531-2.553,0.641-3.885
	L16.798,169.692z"/>
<path fill="#FF9552" d="M12.879,171.896v1.527l-4.814-3.73c-1.643-1.273-3.919,0.006-3.919,2.203v18.028
	c5.859-1.001,10.899-4.685,14.035-9.859l-0.872-0.585c-0.79-0.531-1.035-1.661-0.545-2.522c0.49-0.86,1.525-1.128,2.315-0.594
	l0.721,0.486c0.509-1.241,0.919-2.542,1.217-3.89l-4.219-3.268C15.155,168.419,12.879,169.698,12.879,171.896z"/>
<path fill="#FFA56A" d="M12.375,173.033l-4.31-3.341c-1.643-1.273-3.919,0.006-3.919,2.203v8.371
	C7.417,178.671,10.252,176.179,12.375,173.033z M14.373,169.416c-0.851,0.402-1.494,1.313-1.494,2.479v0.366
	C13.437,171.356,13.936,170.407,14.373,169.416z"/>
</svg>
