<?xml version="1.0" encoding="UTF-8"?>
<!DOCTYPE svg PUBLIC "-//W3C//DTD SVG 1.1//EN" "http://www.w3.org/Graphics/SVG/1.1/DTD/svg11.dtd">
<!-- Creator: CorelDRAW 2020 (64-Bit) -->
<svg xmlns="http://www.w3.org/2000/svg" xml:space="preserve" width="12.0353mm" height="26.0347mm" version="1.1" style="shape-rendering:geometricPrecision; text-rendering:geometricPrecision; image-rendering:optimizeQuality; fill-rule:evenodd; clip-rule:evenodd"
viewBox="0 0 2215 4791"
 xmlns:xlink="http://www.w3.org/1999/xlink"
 xmlns:xodm="http://www.corel.com/coreldraw/odm/2003">
 <defs>
  <style type="text/css">
   <![CDATA[
    .fil3 {fill:#54341A;fill-rule:nonzero}
    .fil2 {fill:#548585;fill-rule:nonzero}
    .fil8 {fill:#768A29;fill-rule:nonzero}
    .fil4 {fill:#CC2106;fill-rule:nonzero}
    .fil10 {fill:#D39B1C;fill-rule:nonzero}
    .fil9 {fill:#DD1717;fill-rule:nonzero}
    .fil7 {fill:#E8B033;fill-rule:nonzero}
    .fil5 {fill:#FAF2DE;fill-rule:nonzero}
    .fil6 {fill:#FF5F06;fill-rule:nonzero}
    .fil1 {fill:white;fill-rule:nonzero}
    .fil0 {fill:url(#id0)}
   ]]>
  </style>
  <radialGradient id="id0" gradientUnits="userSpaceOnUse" gradientTransform="matrix(4.25955 -0 -0 5.3651 -14282 -51868)" cx="4382" cy="11883" r="6857" fx="4382" fy="11883">
   <stop offset="0" style="stop-opacity:1; stop-color:#CCB8A7"/>
   <stop offset="1" style="stop-opacity:1; stop-color:#B8A288"/>
  </radialGradient>
 </defs>
 <g id="图层_x0020_1">
  <metadata id="CorelCorpID_0Corel-Layer"/>
  <path class="fil0" d="M1137 4791c-196,0 -389,-71 -507,-206 -90,-103 -132,-238 -140,-373 -15,15 -39,24 -63,24 -36,0 -74,-20 -86,-66 -32,21 -68,32 -103,32 -73,0 -140,-49 -147,-155 -7,-107 142,-276 278,-276 36,0 72,12 103,41 41,-30 91,-63 138,-91 24,-37 52,-72 83,-103 -6,-32 -1,-62 14,-86 -25,-26 -42,-81 -24,-124 -94,-145 -86,-361 14,-509 -158,-50 -140,-154 -105,-185 28,-25 46,-40 46,-40l-46 -15c-26,-8 -28,-44 -3,-55l40 -18c-2,-3 -16,-23 -34,-50 -21,-31 3,-68 36,-68 6,0 13,1 19,4 14,6 27,12 36,17 4,2 9,3 13,3 18,0 33,-17 29,-36 -30,-139 -50,-176 2,-228 37,-37 118,-64 215,-79 32,-5 54,-33 55,-65 0,-3 1,-6 1,-9 -16,1 -32,1 -48,1 -57,0 -112,-7 -153,-24 -80,-34 -99,-117 -62,-180 23,-41 68,-67 121,-67 37,0 77,12 116,41 49,36 86,87 111,131 4,-1 9,-2 14,-2l0 -1977 41 0 0 1965c9,-78 43,-165 99,-213 45,-37 96,-53 144,-53 119,0 221,97 182,209 -26,74 -110,111 -202,128 58,55 126,130 197,130 10,0 21,-2 31,-5 103,-30 87,-169 13,-173l-1 -3c5,-1 11,-2 16,-2 79,0 101,181 -20,208 -12,3 -23,4 -33,4 -61,0 -104,-47 -137,-81 -28,-28 -57,-55 -88,-76 -34,5 -69,7 -102,7 -9,0 -18,0 -27,0 5,11 8,24 9,36 2,33 25,61 57,66 140,21 251,72 251,162l-79 364c106,3 183,17 183,101 0,46 -26,82 -77,109 124,157 116,376 9,523 13,30 10,67 -7,105 4,23 16,65 9,103 40,36 76,76 108,119 63,38 124,79 166,110 29,-25 62,-35 96,-35 136,0 286,169 278,276 -7,100 -68,155 -144,155 -33,0 -70,-11 -105,-33 -11,45 -47,67 -84,67 -29,0 -59,-14 -79,-41 -36,382 -354,560 -665,560zm-46 -2726c-8,1 -17,3 -25,4 -2,6 -4,12 -4,18 0,26 21,48 48,48 26,0 48,-21 48,-48 0,-13 -6,-25 -14,-34 -2,12 -5,23 -12,24 -7,1 -16,4 -23,4 -8,0 -15,-3 -18,-15zm-5 -20c-4,2 -7,4 -10,7 4,0 8,1 12,1 -1,-2 -1,-5 -2,-8zm-239 -227c-108,0 -131,145 -60,187 38,24 134,35 218,42 10,-27 30,-49 56,-61 -72,-88 -147,-168 -212,-168 0,0 -1,0 -1,0 0,0 0,0 0,0zm366 173c-13,0 -25,1 -38,5 11,8 21,19 29,31 31,-4 63,-8 95,-14 -28,-13 -57,-21 -86,-21zm15 -25c22,0 46,5 68,15 11,5 23,14 36,24 94,-20 179,-53 202,-112 38,-93 -41,-185 -140,-185 -87,0 -188,71 -239,273l3 2c21,-12 45,-18 71,-18z"/>
  <path class="fil1" d="M1020 1972c26,0 48,21 48,48 0,26 -21,48 -48,48 -26,0 -48,-21 -48,-48 0,-26 21,-48 48,-48zm730 1803c-42,-31 -103,-73 -166,-110 -31,-43 -67,-83 -108,-119 8,-38 -4,-81 -9,-103 18,-38 20,-75 7,-105 107,-146 115,-366 -9,-523 51,-27 77,-63 77,-109 0,-85 -77,-99 -183,-101l79 -364c0,-89 -111,-141 -251,-162 -32,-5 -56,-33 -57,-66 -3,-59 -52,-106 -112,-106 -61,0 -110,49 -112,109 -1,32 -24,60 -55,65 -97,15 -178,42 -215,79 -52,52 -32,89 -2,228 5,24 -19,44 -42,33 -10,-5 -23,-11 -37,-17 -40,-19 -80,27 -55,64 18,26 33,47 34,50l-40 18c-25,11 -23,47 3,55l46 15c0,0 -18,15 -46,40 -34,31 -52,135 105,185 -99,149 -107,364 -14,509 -18,43 -1,99 24,124 -15,25 -20,55 -14,86 -31,31 -59,65 -83,103 -47,28 -97,61 -138,91 -148,-136 -390,100 -381,235 10,155 149,188 249,123 20,79 113,80 149,42 8,136 50,270 140,373 305,349 1113,268 1172,-354 45,61 143,54 163,-27 116,72 240,22 249,-122 9,-134 -228,-364 -375,-240z"/>
  <path class="fil2" d="M1022 2128c-197,0 -358,48 -358,108l100 464 257 -18 257 18 101 -464c0,-60 -160,-108 -358,-108z"/>
  <path class="fil3" d="M1020 2673l251 18 100 -457c0,-46 -140,-97 -349,-97 -209,0 -349,51 -349,99l98 455 250 -18zm-263 36l-102 -471c0,-75 186,-118 366,-118 180,0 366,43 366,116l-103 473 -264 -19 -263 19z"/>
  <path class="fil3" d="M1478 3665c-13,-7 -30,0 -36,13 -6,14 -1,30 13,37 42,22 135,73 240,152 35,26 75,69 98,95 10,12 28,13 40,3 12,-10 13,-28 3,-40 -24,-27 -67,-74 -107,-104 -111,-83 -207,-136 -250,-158z"/>
  <path class="fil4" d="M1761 3846c0,0 -49,40 -75,113 -17,47 81,178 81,178 0,0 40,23 50,-14 9,-31 -21,-84 13,-86 34,-2 72,75 150,72 62,-2 81,-50 84,-99 3,-49 -61,-152 -157,-197 -96,-45 -127,19 -146,32z"/>
  <path class="fil3" d="M1772 4131c3,2 11,5 19,5 6,0 13,-2 17,-15 3,-10 1,-24 -1,-37 -3,-18 -5,-35 3,-46 4,-5 11,-8 19,-9l0 0c18,0 33,13 51,27 24,20 54,45 96,45l4 0c46,-2 72,-32 76,-91 3,-46 -60,-145 -153,-188 -21,-10 -41,-15 -58,-15 -34,0 -53,20 -67,34 -5,5 -9,9 -13,12 0,0 -47,39 -72,109 -13,35 52,132 79,168zm19 22c-15,0 -28,-8 -29,-8l-3 -2c-10,-14 -101,-136 -82,-186 27,-74 76,-115 78,-117 3,-2 7,-6 11,-10 14,-15 38,-39 79,-39 20,0 42,6 65,17 103,48 166,155 162,205 -4,68 -36,105 -92,106l-4 0c-48,0 -81,-27 -107,-49 -15,-13 -28,-23 -39,-23 -6,0 -7,2 -7,2 -4,5 -2,20 0,33 2,15 5,31 1,45 -5,18 -17,27 -33,27z"/>
  <path class="fil3" d="M646 3641c14,-7 31,0 38,14 7,15 1,32 -13,40 -45,23 -143,77 -253,160 -37,28 -79,73 -103,100 -11,12 -29,14 -42,4 -13,-10 -14,-29 -3,-42 25,-29 71,-78 113,-109 117,-88 218,-143 264,-167z"/>
  <path class="fil4" d="M363 3811c0,0 49,40 75,113 17,47 -81,178 -81,178 0,0 -40,23 -50,-14 -9,-31 21,-84 -13,-86 -34,-2 -72,75 -150,72 -62,-2 -81,-50 -84,-99 -3,-49 61,-152 157,-197 96,-45 127,19 146,32z"/>
  <path class="fil3" d="M293 3993c10,0 16,3 21,9 9,11 6,28 3,46 -2,14 -4,27 -1,37 4,13 11,15 17,15 8,0 16,-4 19,-5 27,-37 91,-134 79,-168 -25,-70 -72,-109 -73,-109 -3,-2 -7,-7 -12,-11 -14,-14 -33,-34 -67,-34 -17,0 -37,5 -58,15 -93,43 -156,142 -153,188 4,59 29,89 76,91l4 0c42,0 72,-25 96,-45 18,-15 33,-27 49,-27zm40 124c-17,0 -29,-10 -33,-27 -4,-14 -1,-29 1,-45 2,-13 4,-28 0,-33 0,-1 -2,-2 -7,-2 -11,0 -24,11 -39,23 -26,22 -59,49 -107,49l-4 0c-56,-2 -88,-39 -92,-106 -3,-50 60,-157 162,-205 24,-11 46,-17 65,-17 42,0 65,25 79,39 4,4 7,8 10,10 3,2 52,43 78,117 18,50 -72,172 -82,186l-3 2c-1,0 -14,8 -29,8z"/>
  <path class="fil5" d="M997 3424c0,0 -460,30 -530,555 -66,495 260,684 571,684 362,0 694,-235 602,-730 -51,-277 -360,-538 -643,-509z"/>
  <path class="fil3" d="M1041 3430c-14,0 -29,1 -43,2 -5,0 -454,36 -523,547 -28,207 11,373 116,493 101,115 264,181 447,181 203,0 382,-74 490,-204 107,-128 142,-306 104,-515 -49,-264 -331,-504 -591,-504zm-3 1240c-188,0 -356,-68 -460,-187 -108,-123 -148,-294 -120,-506 70,-526 534,-562 538,-562 14,-1 29,-2 44,-2 268,0 557,247 608,518 40,214 3,397 -107,529 -111,134 -294,210 -503,210z"/>
  <path class="fil4" d="M756 3559c0,0 -81,75 -101,272 -3,29 -5,61 -7,87 -2,29 16,57 44,65 27,7 66,15 114,22 36,5 78,3 110,0 28,-3 46,-29 41,-57 -10,-54 -24,-140 -20,-205 7,-102 17,-184 17,-184l-199 0z"/>
  <path class="fil3" d="M760 3567c-13,14 -78,92 -96,264 -2,24 -5,53 -7,87 -2,26 14,50 38,56 35,9 73,16 113,22 15,2 31,3 50,3l0 0c18,0 38,-1 59,-3 10,-1 20,-6 26,-15 7,-9 9,-21 7,-32 -11,-59 -24,-143 -20,-208 5,-81 13,-150 16,-174l-185 0zm98 449l0 0c-19,0 -36,-1 -52,-3 -41,-6 -80,-13 -115,-22 -32,-8 -53,-39 -51,-73 2,-34 5,-63 7,-87 20,-198 100,-274 104,-277l2 -2 212 0 -1 10c0,1 -10,83 -17,183 -4,66 10,156 20,203 3,16 -1,33 -10,45 -9,12 -23,20 -38,21 -21,2 -42,3 -60,3z"/>
  <path class="fil5" d="M1048 2686c0,0 -428,-19 -458,383 -27,362 320,411 412,415 170,7 551,-96 485,-489 -23,-140 -177,-307 -439,-309z"/>
  <path class="fil3" d="M1039 2695c-69,0 -414,18 -441,375 -8,110 18,201 79,269 108,122 290,135 325,137 5,0 11,0 17,0 93,0 278,-34 386,-162 70,-83 95,-190 73,-318 -24,-145 -184,-300 -431,-302 0,0 -3,0 -9,0zm-20 799l0 0c-6,0 -12,0 -18,0 -37,-2 -225,-16 -337,-143 -64,-72 -92,-167 -83,-282 28,-372 387,-391 458,-391 6,0 9,0 9,0 256,2 422,164 447,316 22,133 -4,245 -77,331 -98,116 -271,168 -399,168z"/>
  <path class="fil3" d="M930 2948c-2,23 -22,40 -44,38 -23,-2 -40,-22 -38,-44 2,-23 22,-40 45,-38 23,2 40,22 38,44z"/>
  <path class="fil3" d="M1211 2948c-2,23 -22,40 -44,38 -23,-2 -40,-22 -38,-44 2,-23 22,-40 45,-38 23,2 40,22 38,44z"/>
  <path class="fil6" d="M991 2998c0,0 -71,31 -129,52 -34,12 -117,34 -117,34 0,0 56,32 144,50 107,21 134,17 134,17 0,0 103,-10 90,-96 -13,-89 -105,-62 -122,-57z"/>
  <path class="fil3" d="M769 3086c23,11 66,28 122,39 80,16 114,18 126,18 4,0 5,0 6,0 1,0 48,-5 71,-34 11,-14 15,-31 12,-52 -6,-39 -27,-57 -66,-57 -20,0 -38,5 -45,7 0,0 -71,31 -129,52 -24,8 -69,21 -96,29zm248 74c-15,0 -51,-2 -129,-18 -89,-18 -145,-49 -147,-51l-18 -10 20 -5c1,0 83,-22 117,-34 57,-20 128,-51 128,-51 9,-3 29,-9 52,-9 33,0 74,12 82,72 4,26 -1,47 -15,65 -27,35 -79,40 -82,41 0,0 -2,0 -8,0z"/>
  <path class="fil4" d="M655 3417c8,16 66,43 39,56 -51,26 -35,82 -9,116 37,47 138,70 353,70 318,0 380,-92 380,-136 0,-50 -19,-79 -9,-99 37,-71 -19,-89 -19,-89 0,0 -129,52 -358,63 -268,13 -362,-56 -362,-56 0,0 -45,15 -15,75z"/>
  <path class="fil3" d="M669 3352c-4,2 -10,7 -14,15 -5,12 -2,27 7,46 2,4 11,11 19,17 15,12 30,23 28,36 0,4 -3,10 -12,15 -15,8 -24,19 -28,33 -5,25 8,53 22,70 37,46 144,67 347,67 221,0 311,-44 348,-80 20,-20 23,-38 23,-47 0,-22 -4,-39 -7,-55 -4,-19 -8,-35 0,-48 12,-22 15,-41 9,-55 -5,-12 -15,-18 -20,-21 -22,8 -149,53 -358,63 -22,1 -45,2 -66,2 -193,0 -278,-44 -298,-56zm369 316c-212,0 -319,-22 -360,-73 -16,-21 -32,-54 -25,-84 4,-19 17,-34 37,-44 2,-1 3,-2 3,-2 -1,-4 -14,-15 -22,-20 -11,-8 -20,-15 -23,-23 -12,-24 -14,-44 -7,-60 8,-20 27,-26 27,-26l4 -1 4 3c1,1 80,56 292,56 21,0 43,-1 65,-2 225,-11 354,-62 355,-63l3 -1 3 1c1,0 24,8 33,31 8,19 5,43 -9,70 -4,8 -2,20 2,37 3,15 7,35 8,58 0,11 -4,34 -28,59 -39,39 -133,85 -360,85z"/>
  <path class="fil3" d="M890 3216c0,8 -7,15 -15,15 -8,0 -15,-7 -15,-15 0,-8 7,-15 15,-15 8,0 15,7 15,15z"/>
  <path class="fil3" d="M995 3283c1,13 -9,24 -22,25 -13,1 -24,-9 -25,-22 -1,-13 9,-24 22,-25 13,-1 24,9 25,22z"/>
  <path class="fil3" d="M914 3239c1,9 -6,17 -15,17 -9,1 -17,-6 -17,-15 -1,-9 6,-17 15,-17 9,-1 17,6 17,15z"/>
  <path class="fil3" d="M949 3264c1,11 -8,21 -19,21 -11,1 -21,-8 -21,-19 -1,-11 8,-21 19,-21 11,-1 21,8 21,19z"/>
  <path class="fil3" d="M1162 3210c0,8 7,15 15,15 8,0 15,-7 15,-15 0,-8 -7,-15 -15,-15 -8,0 -15,7 -15,15z"/>
  <path class="fil3" d="M1053 3281c-1,13 9,24 22,25 13,1 24,-9 25,-22 1,-13 -9,-24 -22,-25 -13,-1 -24,9 -25,22z"/>
  <path class="fil3" d="M1138 3237c-1,9 6,17 15,17 9,1 17,-6 17,-15 1,-9 -6,-17 -15,-17 -9,-1 -17,6 -17,15z"/>
  <path class="fil3" d="M1103 3258c-1,11 8,21 19,21 11,1 21,-8 21,-19 1,-11 -8,-21 -19,-21 -11,-1 -21,8 -21,19z"/>
  <path class="fil3" d="M1047 3290c1,13 -9,25 -22,26 -13,1 -25,-9 -26,-22 -1,-13 9,-25 22,-26 13,-1 25,9 26,22z"/>
  <path class="fil2" d="M1483 2706c0,51 -86,108 -458,108 -372,0 -487,-57 -487,-108 0,-51 111,-41 483,-41 372,0 462,-9 462,41z"/>
  <path class="fil3" d="M777 2672c-171,0 -231,5 -231,34 0,46 125,99 479,99 406,0 449,-70 449,-99 0,-34 -70,-34 -306,-33 -43,0 -92,0 -147,0 -55,0 -104,0 -147,0 -35,0 -68,0 -97,0zm248 150c-315,0 -496,-42 -496,-116 0,-46 64,-51 248,-51 29,0 61,0 97,0 44,0 93,0 147,0 55,0 104,0 147,0 34,0 65,0 93,0 174,0 230,4 230,51 0,77 -157,116 -466,116z"/>
  <path class="fil7" d="M740 2564l23 138c0,0 108,21 254,21 121,0 260,-23 260,-23l23 -135c0,0 -121,9 -283,8 -172,-1 -278,-9 -278,-9z"/>
  <path class="fil3" d="M771 2695c24,4 122,19 247,19 105,0 225,-18 253,-22l20 -118c-31,2 -127,7 -249,7l-24 0c-139,-1 -237,-6 -268,-8l21 122zm247 36c-145,0 -254,-20 -256,-21l-6 -1 -26 -155 11 1c1,0 108,8 278,9l24 0c147,0 257,-8 258,-8l11 -1 -26 152 -6 1c-1,0 -141,23 -262,23z"/>
  <path class="fil8" d="M751 2566c-10,-14 -22,-50 -22,-50 0,0 -12,21 -30,17 -24,-6 -37,-50 -37,-50 0,0 -6,17 -21,20 -23,4 -66,-29 -65,-28 0,0 32,41 27,64 -3,14 -19,21 -19,21 0,0 43,14 49,38 5,17 -17,29 -17,29 0,0 36,13 50,23 38,28 3,59 3,59 0,0 34,-10 82,-2 33,6 60,12 72,17l1 1 0 -1 1 0 -1 -1c-5,-13 -11,-39 -16,-72 -8,-48 0,-82 0,-82 0,0 -29,35 -56,-4z"/>
  <path class="fil3" d="M713 2698c13,0 26,1 40,3 24,4 45,9 60,13l-1 -2 4 2c-4,-15 -9,-37 -13,-62 -5,-30 -4,-54 -3,-69 -5,3 -12,6 -20,6 -12,0 -23,-7 -33,-21 -7,-10 -15,-30 -20,-42 -6,7 -17,14 -29,11 -18,-5 -31,-28 -37,-42 -4,5 -10,11 -18,12 -11,2 -27,-3 -46,-14 9,15 16,32 13,45 -2,9 -7,15 -12,19 14,6 38,19 43,38 3,13 -4,23 -11,29 12,5 31,13 42,20 13,9 20,20 20,32 0,9 -3,17 -6,23 7,-1 17,-2 29,-2zm124 47l-16 -16c-13,-5 -40,-11 -70,-16 -13,-2 -25,-3 -38,-3 -25,0 -42,5 -42,5l-24 7 18 -17c0,0 13,-12 13,-27 0,-8 -6,-16 -16,-24 -13,-10 -48,-22 -48,-22l-12 -4 11 -6c0,0 18,-10 14,-23 -4,-17 -35,-30 -46,-34l-14 -5 13 -6c0,0 14,-6 16,-17 3,-14 -12,-39 -26,-59l-2 -3 3 -7 5 0 3 2c32,23 49,27 56,27l3 0c11,-2 16,-16 16,-16l6 -15 5 16c4,11 17,41 33,46 11,3 21,-9 23,-14l6 -11 4 12c0,0 12,35 22,49 8,11 16,16 24,16 13,0 23,-12 23,-12l15 -18 -5 23c0,0 -7,33 0,80 5,31 11,57 16,70l18 18 -14 -5 4 12z"/>
  <path class="fil3" d="M722 2616c-2,-13 -4,-40 -4,-40 0,0 -3,30 -2,34l-48 -47c0,0 -1,-8 -2,-19 -1,10 -3,16 -3,16l-44 -44 43 47c0,0 -16,-2 -27,-1 11,0 31,5 31,5l0 0 48 50c-5,0 -25,1 -34,4 18,0 40,2 40,2l99 101c2,1 3,-5 2,-9l-99 -97z"/>
  <path class="fil8" d="M972 2673c14,-5 46,-7 46,-7 0,0 -15,-15 -7,-28 10,-18 49,-20 49,-20 0,0 -13,-9 -12,-21 2,-19 40,-46 38,-47 1,-3 -41,17 -58,8 -11,-5 -13,-21 -13,-21 0,0 -21,32 -42,32 -15,0 -20,-20 -20,-20 0,0 -18,26 -30,36 -31,25 -49,-10 -49,-10 0,0 1,30 -17,67 -12,26 -23,46 -30,56l-1 0 0 0 0 0 1 0c11,-1 35,0 63,3 41,4 67,18 67,18 0,0 -22,-31 16,-45z"/>
  <path class="fil3" d="M838 2692c13,0 31,1 51,3 25,2 44,8 56,13 -1,-5 -2,-11 0,-18 3,-10 11,-17 25,-22 10,-4 27,-6 37,-7 -4,-7 -7,-17 -1,-26 8,-14 29,-19 42,-21 -3,-5 -6,-10 -5,-17 1,-11 11,-24 23,-35 -14,4 -31,6 -40,2 -6,-3 -10,-9 -13,-14 -8,10 -24,26 -40,26 -11,0 -18,-8 -22,-15 -7,9 -17,22 -25,29 -9,7 -17,10 -25,10 -10,0 -17,-5 -23,-10 -2,13 -6,32 -16,55 -9,19 -18,36 -24,47l1 0 0 0 1 0zm136 42l-21 -11c0,0 -26,-13 -65,-17 -26,-3 -49,-4 -61,-3l-20 12 7 -10 -17 2 25 -15c7,-10 18,-30 29,-54 17,-36 16,-65 16,-65l0 -25 11 22c0,0 8,16 22,16 6,0 12,-3 18,-8 11,-9 29,-34 29,-35l7 -10 3 12c0,0 4,16 15,16 15,0 32,-21 37,-30l8 -12 2 14c0,0 2,12 10,16 2,1 5,2 9,2 12,0 27,-5 37,-8 6,-2 8,-3 10,-3l3 0 1 1 1 0 2 4 -1 1c0,3 -2,5 -8,10 -9,8 -29,25 -30,37 -1,9 9,16 9,16l13 9 -16 1c-10,0 -37,4 -44,17 -5,9 6,21 6,21l9 9 -12 1c0,0 -31,2 -44,7 -10,4 -16,9 -18,15 -3,10 5,22 5,22l13 19z"/>
  <path class="fil3" d="M893 2657c8,-5 16,-10 22,-14 41,-24 87,-45 104,-54 -10,2 -47,17 -79,32 4,-9 9,-24 6,-31 0,8 -4,22 -11,34 -9,4 -17,9 -24,12 -31,18 -78,54 -78,54 -1,1 -1,7 3,7 0,0 28,-20 53,-37 11,4 29,12 35,19 -5,-8 -22,-19 -30,-23z"/>
  <path class="fil8" d="M870 2520c2,-20 18,-61 18,-61 0,0 -27,10 -39,-7 -16,-23 4,-72 4,-72 0,0 -18,10 -33,2 -23,-13 -36,-75 -36,-74 0,-1 -3,60 -24,77 -13,10 -33,4 -33,4 0,0 27,45 15,70 -9,19 -37,13 -37,13 0,0 22,38 27,57 13,53 -41,55 -41,55 0,0 37,17 73,60 25,30 43,55 51,69l0 1 0 -1 0 1 0 -1c5,-15 20,-43 40,-76 29,-48 61,-72 61,-72 0,0 -52,9 -47,-46z"/>
  <path class="fil3" d="M814 2700l1 2c7,-16 20,-40 36,-66 19,-31 38,-52 50,-64 -9,-1 -19,-4 -27,-13 -8,-9 -12,-22 -10,-39 1,-15 9,-39 14,-53 -2,0 -5,1 -7,1 -12,0 -21,-4 -27,-13 -12,-18 -6,-49 0,-65 -8,2 -19,2 -26,-3 -13,-8 -23,-28 -31,-50 -4,21 -10,43 -22,53 -7,5 -16,8 -26,7 8,15 20,45 10,65 -5,11 -17,17 -32,17 7,13 19,35 22,50 4,18 2,32 -6,43 -7,9 -16,13 -24,16 14,9 38,26 61,54 19,23 35,44 45,59l0 -1zm-2 50l-3 -34c-8,-14 -27,-40 -50,-67 -35,-42 -71,-58 -71,-58l-23 -10 25 -1c0,0 21,-1 32,-14 6,-8 7,-19 4,-33 -5,-19 -26,-56 -26,-56l-6 -11 12 2c1,0 24,4 31,-10 9,-19 -8,-53 -15,-65l-8 -12 14 4c0,0 5,1 11,1 7,0 13,-2 17,-5 11,-8 19,-35 21,-72l0 -5 5 -1 4 0 2 6c9,37 21,61 33,68 3,2 6,2 10,2 9,0 17,-4 17,-5l14 -8 -6 15c-5,13 -17,49 -5,66 3,5 9,8 17,8 8,0 14,-2 15,-2l12 -4 -5 12c0,0 -16,40 -17,59 -1,14 1,24 7,31 7,8 18,9 26,9 4,0 7,0 7,0l23 -4 -19 14c0,0 -31,24 -59,71 -18,31 -33,59 -39,74l2 30 -7 -14 -5 18z"/>
  <path class="fil3" d="M815 2638l-9 -95c7,-15 25,-35 25,-35 0,0 -21,17 -26,25l-8 -78c0,0 10,-18 23,-34 -11,10 -24,29 -24,29l-6 -66 3 67c0,0 -12,-15 -18,-18 6,7 18,23 18,23l6 81c-10,-13 -38,-32 -38,-32 0,0 31,26 39,41 1,6 6,91 6,91 0,2 1,9 1,13l4 59 3 5 0 1 0 -1 0 1 0 -1c1,-3 3,-7 5,-11l-4 -53c-1,-4 -1,-8 -1,-12z"/>
  <path class="fil9" d="M870 2659c1,25 -19,46 -44,47 -25,1 -46,-19 -47,-44 -1,-25 19,-46 44,-47 25,-1 46,19 47,44z"/>
  <path class="fil3" d="M824 2620c-23,1 -40,19 -40,41 1,22 18,39 40,39l0 6 1 -6c22,-1 39,-19 39,-41 -1,-22 -18,-39 -40,-39zm0 91c-28,0 -50,-22 -51,-50 -1,-28 22,-52 50,-53l0 0c29,0 52,22 53,50 1,28 -22,52 -50,53l-1 0z"/>
  <path class="fil3" d="M830 2638c0,4 -3,7 -7,8 -4,0 -7,-3 -8,-7 0,-4 3,-7 7,-8 4,0 7,3 8,7z"/>
  <path class="fil9" d="M802 2666c15,14 17,37 3,53 -14,15 -37,17 -53,3 -15,-14 -17,-37 -3,-53 14,-15 37,-17 53,-3z"/>
  <path class="fil3" d="M777 2662c-9,0 -18,4 -24,11 -6,6 -8,15 -8,23 0,8 4,16 11,22 13,11 34,10 45,-3 12,-13 10,-33 -3,-45 -6,-5 -13,-8 -21,-8zm0 75c-11,0 -21,-4 -29,-11 -9,-8 -14,-18 -14,-30 -1,-11 3,-23 11,-31 15,-17 44,-19 61,-4 18,16 19,43 4,61 -8,9 -20,15 -32,15z"/>
  <path class="fil3" d="M767 2678c3,2 3,6 1,9 -2,3 -6,3 -9,1 -3,-2 -3,-6 -1,-9 2,-3 6,-3 9,-1z"/>
  <path class="fil9" d="M870 2681c12,12 12,30 1,42 -12,12 -30,12 -42,1 -12,-12 -12,-30 -1,-42 12,-12 30,-12 42,-1z"/>
  <path class="fil3" d="M849 2678c-7,0 -13,3 -17,7 -5,5 -7,11 -7,17 0,6 3,13 7,17 9,9 25,9 34,0 5,-5 7,-11 7,-17 0,-6 -3,-13 -7,-17 -5,-4 -11,-7 -17,-7zm0 60c-9,0 -18,-4 -25,-10 -7,-7 -11,-16 -11,-25 0,-9 3,-19 10,-25 13,-14 37,-14 50,-1 7,7 11,16 11,25 0,9 -3,19 -10,25 -7,7 -16,11 -25,11z"/>
  <polygon class="fil3" points="838,2691 838,2698 832,2698 832,2691 "/>
  <path class="fil3" d="M1095 4188c0,25 -20,45 -45,45 -25,0 -45,-20 -45,-45 0,-25 20,-45 45,-45 25,0 45,20 45,45z"/>
  <path class="fil3" d="M1095 4029c0,25 -20,45 -45,45 -25,0 -45,-20 -45,-45 0,-25 20,-45 45,-45 25,0 45,20 45,45z"/>
  <path class="fil3" d="M1120 4376c0,33 -27,60 -60,60 -33,0 -60,-27 -60,-60 0,-33 27,-60 60,-60 33,0 60,27 60,60z"/>
  <polygon class="fil10" points="1008,1968 1049,1968 1049,9 1008,9 "/>
  <path class="fil10" d="M1049 1971c-11,-90 24,-222 100,-287 158,-130 381,-1 326,156 -49,139 -305,150 -426,131zm394 -143c74,-181 -295,-358 -390,139 142,-14 352,-42 390,-139z"/>
  <path class="fil10" d="M758 1751c-109,0 -131,145 -61,187 57,37 252,44 330,50 -88,-110 -187,-238 -269,-237zm275 240c-101,20 -242,28 -325,-6 -80,-34 -99,-117 -62,-180 40,-69 141,-95 237,-26 107,78 158,232 150,212z"/>
  <path class="fil10" d="M1030 1953c108,-71 219,0 309,93 38,40 90,98 170,77 129,-29 96,-232 5,-206l0 3c74,4 89,143 -13,173 -112,37 -218,-141 -295,-177 -66,-31 -141,-13 -178,36l2 2z"/>
  <path class="fil10" d="M1000 1996c0,0 -13,-44 -3,-54 10,-10 21,-8 28,3 8,10 28,10 28,10 0,0 3,51 -13,54 -15,3 -36,13 -41,-13z"/>
 </g>
</svg>
