<svg width="25" height="25" xmlns="http://www.w3.org/2000/svg">

 <g>
  <title>background</title>
  <rect fill="none" id="canvas_background" height="402" width="582" y="-1" x="-1"/>
 </g>
 <g>
  <title>Layer 1</title>
  <path stroke="null" id="svg_1" fill-rule="evenodd" fill="#ff4e32" d="m15.422117,24.947022c8.638775,-0.250444 9.488983,-2.075254 9.488983,-12.434897c0,-11.431064 -1.035576,-12.47025 -12.426912,-12.47025c-11.391305,0 -12.426881,1.039186 -12.426881,12.47025c0,10.386662 0.855386,12.193806 9.556264,12.436975c0.075597,-0.094566 0.103558,-0.213033 0.103558,-0.333579c0,-0.259796 -0.010356,-2.926347 -0.015534,-3.843948c-3.145013,0.66404 -3.808817,-1.474605 -3.808817,-1.474605c-0.514681,-1.269885 -1.256154,-1.60866 -1.256154,-1.60866c-1.026256,-0.681706 0.077668,-0.668196 0.077668,-0.668196c1.134991,0.077939 1.732519,1.133752 1.732519,1.133752c1.008651,1.680363 2.646932,1.195064 3.291029,0.913444c0.102522,-0.709764 0.394554,-1.195064 0.717654,-1.469409c-2.511241,-0.277463 -5.150924,-1.221043 -5.150924,-5.434942c0,-1.20026 0.441155,-2.181251 1.163987,-2.950269c-0.11702,-0.278502 -0.504326,-1.396666 0.110807,-2.90972c0,0 0.949623,-0.296168 3.109804,1.126477c0.901987,-0.244209 1.869215,-0.365793 2.831265,-0.36995c0.959979,0.004157 1.927207,0.125741 2.831265,0.36995c2.159176,-1.422645 3.106728,-1.126477 3.106728,-1.126477c0.617203,1.513054 0.228862,2.631218 0.111842,2.90972c0.724903,0.769018 1.162952,1.75001 1.162952,2.950269c0,4.22429 -2.643825,5.154361 -5.163382,5.425589c0.405946,0.339814 0.767362,1.011128 0.767362,2.036804c0,0.98307 -0.006213,2.721628 -0.010356,3.874085c-0.002071,0.570513 -0.003107,0.996579 -0.003107,1.116086c0,0.113271 0.030032,0.232778 0.09838,0.3315l0,0z" clip-rule="evenodd"/>
 </g>
</svg>