<svg width="64" height="64" xmlns="http://www.w3.org/2000/svg">

 <title/>
 <g>
  <title>background</title>
  <rect fill="none" id="canvas_background" height="402" width="582" y="-1" x="-1"/>
 </g>
 <g>
  <title>Layer 1</title>
  <path stroke="null" fill="#ff572d" id="svg_1" d="m21.592386,0.391838a20.657403,20.657403 0 0 1 18.271585,11.007833a16.240097,16.240097 0 1 1 8.114143,30.259729l-26.444783,0.070866a20.669214,20.669214 0 0 1 0,-41.338428l0.059055,0z" class="cls-1"/>
  <circle fill="#000000" id="svg_2" transform="rotate(-74.38999938964844 3.7200000286102313,67.08000183105469) " r="0" cy="98.170002" cx="49.77" class="cls-2"/>
  <polygon stroke="null" fill="#efcc00" id="svg_3" points="34.522125244140625,31.32269549369812 31.765024185180664,47.179239988327026 37.27921676635742,47.179239988327026 34.522125244140625,58.89367175102234 47.6215705871582,42.3510844707489 41.42133712768555,42.3510844707489 46.9355354309082,31.32269549369812 34.522125244140625,31.32269549369812 " class="cls-3"/>
  <path stroke="null" fill="#0baeff" id="svg_4" d="m26.773505,52.849894a4.047868,4.047868 0 1 1 -8.095735,0c0,-3.547325 3.264409,-6.833497 4.047868,-6.833497s4.047868,3.264409 4.047868,6.833497z" class="cls-4"/>
 </g>
</svg>