<?xml version="1.0" standalone="no"?><!DOCTYPE svg PUBLIC "-//W3C//DTD SVG 1.1//EN" "http://www.w3.org/Graphics/SVG/1.1/DTD/svg11.dtd"><svg t="1655390244369" class="icon" viewBox="0 0 1024 1024" version="1.1" xmlns="http://www.w3.org/2000/svg" p-id="1321" xmlns:xlink="http://www.w3.org/1999/xlink" width="200" height="200"><defs><style type="text/css"></style></defs><path d="M619.52 935.6288H422.7072c-101.5808 0-183.9104-82.3296-183.9104-183.9104V361.2672c0-101.5808 82.3296-183.9104 183.9104-183.9104h264.3456c99.0208 0 179.712 78.2336 183.7568 176.2304 0.1024 2.56 0.1536 5.12 0.1536 7.68v318.208c0 27.3408-10.9568 53.504-30.464 72.6016-51.6608 50.688-112.896 108.8-169.728 163.0208-13.824 13.2096-32.1536 20.5312-51.2512 20.5312z" fill="#FFF7E6" p-id="1322"></path><path d="M675.6864 325.376H360.6016c-14.1312 0-25.6-11.4688-25.6-25.6s11.4688-25.6 25.6-25.6h315.0336c14.1312 0 25.6 11.4688 25.6 25.6s-11.4176 25.6-25.5488 25.6zM675.6864 493.1072H360.6016c-14.1312 0-25.6-11.4688-25.6-25.6s11.4688-25.6 25.6-25.6h315.0336c14.1312 0 25.6 11.4688 25.6 25.6s-11.4176 25.6-25.5488 25.6zM500.48 660.8384H360.6016c-14.1312 0-25.6-11.4688-25.6-25.6s11.4688-25.6 25.6-25.6h139.8784c14.1312 0 25.6 11.4688 25.6 25.6s-11.4176 25.6-25.6 25.6z" fill="#44454A" p-id="1323"></path><path d="M624.128 925.952h0.9728l224.0512-207.104c7.936-7.68 2.5088-21.1456-8.5504-21.1456H706.048c-45.2608 0-81.92 36.1984-81.92 80.8448v147.4048z" fill="#FD973F" p-id="1324"></path><path d="M896.6144 427.008c0-14.1312-11.4688-25.6-25.6-25.6s-25.6 11.4688-25.6 25.6v223.3856c0 7.424-1.0752 14.7456-2.9184 21.8112-0.6144-0.0512-1.2288-0.1536-1.8944-0.1536H706.048c-59.2896 0-107.52 47.7696-107.52 106.4448v116.736c0 4.8128 0.8704 9.4208 2.3552 13.7728-3.2256 0.5632-6.5536 0.8704-9.8816 0.8704h-219.136c-98.816 0-179.2-80.384-179.2-179.2V296.0896c0-98.816 80.384-179.2 179.2-179.2h294.3488c88.8832 0 163.328 63.5904 177.0496 151.2448a25.6512 25.6512 0 0 0 29.2352 21.3504 25.62048 25.62048 0 0 0 21.3504-29.2352c-17.664-112.6912-113.3568-194.5088-227.6352-194.5088H371.8656c-127.0272 0-230.4 103.3728-230.4 230.4v434.7392c0 127.0272 103.3728 230.4 230.4 230.4h219.136c27.9552 0 54.4768-10.5984 74.7008-29.9008l29.952-28.5184c54.3744-51.8656 110.6432-105.472 159.3344-153.1904 2.56-2.56 5.0176-5.1712 7.3728-7.936l4.5568-4.4032c4.352-4.1984 7.4752-9.2672 9.4208-14.6944 13.056-21.6064 20.224-46.6432 20.224-72.1408V427.008z m-246.8864 351.5904c0-30.464 25.2416-55.2448 56.32-55.2448h101.5296l-157.8496 152.1152v-96.8704z" fill="#44454A" p-id="1325"></path><path d="M871.0144 374.528c-14.1312 0-25.6-11.4688-25.6-25.6V336.384c0-14.1312 11.4688-25.6 25.6-25.6s25.6 11.4688 25.6 25.6v12.544c0 14.1312-11.4688 25.6-25.6 25.6z" fill="#44454A" p-id="1326"></path></svg>