<?xml version="1.0" standalone="no"?><!DOCTYPE svg PUBLIC "-//W3C//DTD SVG 1.1//EN" "http://www.w3.org/Graphics/SVG/1.1/DTD/svg11.dtd"><svg t="1610288857742" class="icon" viewBox="0 0 1381 1024" version="1.1" xmlns="http://www.w3.org/2000/svg" p-id="2447" xmlns:xlink="http://www.w3.org/1999/xlink" width="269.7265625" height="200"><defs><style type="text/css"></style></defs><path d="M1097.5573333 165.03466631A102.4 102.4 0 0 0 1064.9600003 159.57333331H325.9733333a102.4 102.4 0 0 0-102.4 102.4l5.461333 3.242667v530.602666a102.4 102.4 0 0 0 102.4 102.4h737.28a102.4 102.4 0 0 0 102.4-102.4V263.33866631A102.4 102.4 0 0 0 1097.5573333 165.03466631z m-722.432 409.6a64.853333 64.853333 0 1 1 64.853333-64.853333 64.853333 64.853333 0 0 1-64.853333 64.170667z" fill="#BBDCFF" p-id="2448"></path><path d="M1171.1146663 532.65066631L796.8426663 896.34133331h129.024l245.248-233.813333v-129.877334z" fill="#FFD300" p-id="2449"></path><path d="M375.1253333 434.00533331a75.093333 75.093333 0 1 0 75.093333 75.093333 75.093333 75.093333 0 0 0-75.093333-75.093333z m0 129.706667a54.613333 54.613333 0 1 1 54.613333-54.613334 54.613333 54.613333 0 0 1-54.613333 53.930667z m802.133333-301.738667a112.810667 112.810667 0 0 0-112.64-112.64H325.9733333A112.810667 112.810667 0 0 0 213.3333333 261.97333331v5.973333h1.365333v527.872a112.810667 112.810667 0 0 0 112.64 112.64h737.28a112.810667 112.810667 0 0 0 112.64-112.64V268.11733331zM327.3386663 170.49600031h737.28a92.330667 92.330667 0 0 1 91.818667 85.333333l-460.8 261.973333-460.8-260.778666a91.989333 91.989333 0 0 1 92.501333-86.528z m829.098667 487.936L920.2346663 886.27200031h-98.816L1156.4373333 557.22666631z m0 136.533333a92.330667 92.330667 0 0 1-92.16 92.16h-117.248l209.408-200.533333z m0-266.069333l-364.714667 358.4H327.3386663a92.330667 92.330667 0 0 1-92.501333-91.477334V280.40533331l460.8 260.949333 460.8-261.632z" fill="#3989FF" p-id="2450"></path></svg>