<?xml version="1.0" standalone="no"?><!DOCTYPE svg PUBLIC "-//W3C//DTD SVG 1.1//EN" "http://www.w3.org/Graphics/SVG/1.1/DTD/svg11.dtd"><svg t="1610100246449" class="icon" viewBox="0 0 1024 1024" version="1.1" xmlns="http://www.w3.org/2000/svg" p-id="29427" data-spm-anchor-id="a313x.7781069.0.i54" xmlns:xlink="http://www.w3.org/1999/xlink" width="200" height="200"><defs><style type="text/css"></style></defs><path d="M867.585 131.212h-694.621c0 0 0 0 0 0-21.997 0-39.829 17.833-39.829 39.829 0 0.004 0 0.007 0 0.020v82.407h774.3v-82.407h-0.019c0-0.003 0-0.007 0-0.019 0-21.997-17.833-39.829-39.829-39.829 0 0 0 0 0 0z" fill="#FFFFFF" p-id="29428" data-spm-anchor-id="a313x.7781069.0.i53" class=""></path><path d="M867.585 891.927c21.997-0.006 39.828-17.834 39.849-39.828v-571.453h-774.316v571.45c0 21.984 17.847 39.829 39.829 39.829h694.641z" fill="#fe6248" p-id="29429" data-spm-anchor-id="a313x.7781069.0.i50" class=""></path><path d="M867.585 76.882h-694.621c-52.009 0.006-94.166 42.17-94.176 94.175v681.039c0.006 52.009 42.17 94.166 94.175 94.176h694.621c0.003 0 0.007 0 0.019 0 52.013 0 94.176-42.164 94.176-94.176 0 0 0 0 0 0v-681.036c0 0 0 0 0 0 0-52.013-42.164-94.176-94.176-94.176-0.004 0-0.007 0-0.020 0zM133.114 852.1v-571.45h774.3v571.45c0 0.018 0 0.035 0 0.054 0 21.967-17.807 39.775-39.775 39.775-0.023 0-0.051 0-0.076 0h-694.597c0 0 0 0 0 0-22.002 0-39.839-17.83-39.849-39.829zM907.434 253.467h-774.316v-82.407c0-22.020 17.847-39.849 39.829-39.849h694.621c22.002 0 39.829 17.829 39.829 39.849h0.019v82.407z" fill="#2c2c2c" p-id="29430" data-spm-anchor-id="a313x.7781069.0.i55" class=""></path><path d="M182.3 212.704h13.582c0 0 0 0 0 0 7.499 0 13.582-6.081 13.582-13.582 0-7.499-6.081-13.582-13.582-13.582 0 0 0 0 0 0h-13.582c-0.211-0.007-0.458-0.019-0.705-0.019-7.513 0-13.6 6.089-13.6 13.6 0 7.513 6.089 13.6 13.6 13.6 0.25 0 0.494-0.004 0.739-0.020zM277.373 212.704h13.6c0 0 0 0 0 0 7.499 0 13.582-6.081 13.582-13.582 0-7.499-6.081-13.582-13.582-13.582 0 0 0 0 0 0h-13.6c-7.499 0-13.582 6.081-13.582 13.582s6.081 13.582 13.582 13.582zM372.444 212.704h13.582c0 0 0 0 0 0 7.499 0 13.582-6.081 13.582-13.582 0-7.499-6.081-13.582-13.582-13.582 0 0 0 0 0 0h-13.582c-7.499 0-13.582 6.081-13.582 13.582s6.081 13.582 13.582 13.582zM267.67 595.359l69.776-86.141c2.13-2.387 3.434-5.553 3.434-9.027 0-7.499-6.081-13.582-13.582-13.582-4.471 0-8.435 2.161-10.911 5.492l-76.738 94.688c-1.887 2.317-3.033 5.308-3.033 8.566s1.146 6.249 3.051 8.591l124.505 153.661c2.499 2.787 6.114 4.53 10.135 4.53 7.513 0 13.6-6.089 13.6-13.6 0-3.036-0.994-5.839-2.674-8.101l-117.562-145.084zM364.173 433.145l-12.412 15.321c-1.612 2.208-2.58 4.974-2.58 7.969 0 7.513 6.089 13.6 13.6 13.6 3.984 0 7.568-1.713 10.054-4.445l12.439-15.313c1.716-2.254 2.75-5.103 2.75-8.197 0-7.513-6.089-13.6-13.6-13.6-4.081 0-7.748 1.799-10.237 4.646zM679.595 433.124c-2.511-3.067-6.294-5.011-10.535-5.011-7.498 0-13.579 6.080-13.579 13.579 0 3.26 1.148 6.251 3.062 8.591l117.569 145.074-117.588 145.137c-1.908 2.316-3.067 5.317-3.067 8.587 0 7.481 6.063 13.547 13.547 13.547 0.018 0 0.033 0 0.050 0 0.005 0 0.021 0 0.033 0 4.227 0 8.004-1.938 10.486-4.972l124.545-153.71c1.887-2.317 3.033-5.308 3.033-8.566s-1.146-6.249-3.051-8.591l-124.505-153.661zM579.287 514.636l-124.545 153.667c-1.659 2.231-2.658 5.037-2.658 8.078 0 7.513 6.089 13.6 13.6 13.6 4.038 0 7.663-1.76 10.154-4.55l124.556-153.68c1.879-2.323 3.015-5.309 3.015-8.566 0-4.252-1.941-8.052-4.988-10.561-2.337-1.882-5.312-3.009-8.553-3.009-4.257 0-8.060 1.947-10.561 4.998z" fill="#2c2c2c" p-id="29431" data-spm-anchor-id="a313x.7781069.0.i51" class=""></path></svg>