<?xml version="1.0" standalone="no"?><!DOCTYPE svg PUBLIC "-//W3C//DTD SVG 1.1//EN" "http://www.w3.org/Graphics/SVG/1.1/DTD/svg11.dtd"><svg t="1610099406458" class="icon" viewBox="0 0 1024 1024" version="1.1" xmlns="http://www.w3.org/2000/svg" p-id="12042" xmlns:xlink="http://www.w3.org/1999/xlink" width="200" height="200"><defs><style type="text/css"></style></defs><path d="M432 192c-154.4 0-280 125.6-280 280v477.6l160 42.4 89.6-24 92 24H712V472c0-154.4-125.6-280-280-280z" fill="#FFFFFF" p-id="12043"></path><path d="M592 192c-28 0-54.4 4-80 12C628 238.4 712 344.8 712 472v520h64v24h96V472c0-154.4-125.6-280-280-280z" fill="#B2B5B7" p-id="12044"></path><path d="M336 376m-24 0a24 24 0 1 0 48 0 24 24 0 1 0-48 0Z" fill="#B2B5B7" p-id="12045"></path><path d="M576 736m-24 0a24 24 0 1 0 48 0 24 24 0 1 0-48 0Z" fill="#B2B5B7" p-id="12046"></path><path d="M792 840m-24 0a24 24 0 1 0 48 0 24 24 0 1 0-48 0Z" fill="#FFFFFF" p-id="12047"></path><path d="M336 896m-24 0a24 24 0 1 0 48 0 24 24 0 1 0-48 0Z" fill="#B2B5B7" p-id="12048"></path><path d="M432 720c-13.6 0-24-10.4-24-24V456c0-13.6 10.4-24 24-24s24 10.4 24 24v240c0 13.6-10.4 24-24 24z" fill="#444B54" p-id="12049"></path><path d="M512 560H352c-13.6 0-24-10.4-24-24s10.4-24 24-24h160c13.6 0 24 10.4 24 24s-10.4 24-24 24z" fill="#444B54" p-id="12050"></path><path d="M896 968V472c0-168-136-304-304-304H432c-168 0-304 136-304 304v375.2c0 12 8 22.4 19.2 24.8 15.2 3.2 28.8-8.8 28.8-23.2V472c0-141.6 114.4-256 256-256h160c141.6 0 256 114.4 256 256v488c0 4.8-3.2 8-8 8H744c-4.8 0-8-3.2-8-8V472c0-79.2-30.4-153.6-84.8-210.4-8.8-9.6-24-11.2-33.6-3.2-11.2 9.6-11.2 26.4-0.8 36 48.8 44.8 71.2 112 71.2 178.4V960c0 4.8-3.2 8-8 8H492.8c-10.4 0-20-2.4-29.6-7.2l-18.4-8.8c-32.8-16-71.2-18.4-104-1.6-20 10.4-44 9.6-63.2-1.6-71.2-41.6-158.4-43.2-225.6 4.8l-22.4 16c-14.4 10.4-18.4 24-12 34.4 4.8 8 12.8 12 20.8 12 4.8 0 9.6-1.6 13.6-4.8l3.2-2.4c60-43.2 138.4-48.8 204.8-16 31.2 16 69.6 16 100.8 0 18.4-8.8 40-9.6 58.4-0.8l22.4 11.2c16 8 32.8 12 50.4 12h403.2c12 0 22.4-8 24.8-19.2 2.4-14.4-8.8-28-24-28z" fill="#444B54" p-id="12051"></path><path d="M992 992m-24 0a24 24 0 1 0 48 0 24 24 0 1 0-48 0Z" fill="#444B54" p-id="12052"></path></svg>