<?xml version="1.0" standalone="no"?><!DOCTYPE svg PUBLIC "-//W3C//DTD SVG 1.1//EN" "http://www.w3.org/Graphics/SVG/1.1/DTD/svg11.dtd"><svg t="1678780600597" class="icon" viewBox="0 0 1024 1024" version="1.1" xmlns="http://www.w3.org/2000/svg" p-id="18693" xmlns:xlink="http://www.w3.org/1999/xlink" width="200" height="200"><path d="M868.2 218c-86.6-86.5-226.9-86.5-313.4 0L512 260.7l-42.7 42.7c-0.9 0.9-1.8 1.6-2.8 2.3L198.3 573.9l0.2 0.2L483.4 859c15.7 15.7 41.2 15.7 57 0l284.9-284.9 0.2-0.2 42.5-42.5c86.7-86.5 86.7-226.9 0.2-313.4z" fill="#009F72" p-id="18694"></path><path d="M165.8 541.4L478 229.6c0.8-0.8 0.8-2 0-2.8l-8.8-8.8c-86.5-86.5-226.8-86.5-313.4 0-86.5 86.5-86.5 226.9 0 313.4l10 10z" fill="#F9DB88" p-id="18695"></path></svg>