<?xml version="1.0" standalone="no"?><!DOCTYPE svg PUBLIC "-//W3C//DTD SVG 1.1//EN" "http://www.w3.org/Graphics/SVG/1.1/DTD/svg11.dtd"><svg t="1610099455749" class="icon" viewBox="0 0 1024 1024" version="1.1" xmlns="http://www.w3.org/2000/svg" p-id="12312" xmlns:xlink="http://www.w3.org/1999/xlink" width="200" height="200"><defs><style type="text/css"></style></defs><path d="M642.56 946.176h-261.12c-167.936 0-303.616-136.192-303.616-303.616v-261.12c0-167.936 136.192-303.616 303.616-303.616h261.12c167.936 0 303.616 136.192 303.616 303.616v261.12c0 167.424-136.192 303.616-303.616 303.616z" fill="#fe492a" p-id="12313" data-spm-anchor-id="a313x.7781069.0.i18" class=""></path><path d="M512 232.448c-154.112 0-279.04 125.44-279.04 279.552s124.928 278.528 279.04 278.528c154.624 0 279.04-124.416 279.04-278.528 0.512-154.112-125.44-279.552-279.04-279.552z m0 503.296c-123.904 0-224.256-100.352-224.256-223.744S388.608 288.256 512 288.256c123.904 0 224.256 100.352 224.256 223.744 0.512 123.392-100.352 223.744-224.256 223.744z m0 0" fill="#ffffff" p-id="12314" data-spm-anchor-id="a313x.7781069.0.i20" class="selected"></path><path d="M518.656 430.08h59.392c15.36 0 27.136-11.776 27.136-27.136s-11.776-27.136-27.136-27.136h-59.392c-75.264 0-136.704 60.928-136.704 136.704 0 75.264 61.44 136.704 136.704 136.704h59.392c15.36 0 27.136-11.776 27.136-27.136s-11.776-27.136-27.136-27.136h-59.392c-45.056 0-81.92-37.376-81.92-81.92 0-47.104 36.352-82.944 81.92-82.944z m0 0" fill="#ffffff" p-id="12315" data-spm-anchor-id="a313x.7781069.0.i21" class="selected"></path></svg>