<?xml version="1.0" standalone="no"?><!DOCTYPE svg PUBLIC "-//W3C//DTD SVG 1.1//EN" "http://www.w3.org/Graphics/SVG/1.1/DTD/svg11.dtd"><svg t="1610100044424" class="icon" viewBox="0 0 1024 1024" version="1.1" xmlns="http://www.w3.org/2000/svg" p-id="19747" xmlns:xlink="http://www.w3.org/1999/xlink" width="200" height="200"><defs><style type="text/css"></style></defs><path d="M237.7 873.9l-23.9 23.9-33.6 33.6H94.4c-20.2 0-30.3-24.4-16-38.7l65.2-65.2 23.9-23.9 41.9 41.9 0.3 0.3 28 28.1z" fill="#FDF17F" p-id="19748"></path><path d="M237.7 873.9l-23.9 23.9-33.6 33.6h-56.1l61.7-61.7 23.9-23.8z" fill="#FAD672" p-id="19749"></path><path d="M706.8 630.5c-5.4-6-4.9-15.3 0.8-21l210.6-210.6c5.5-5.5 5.5-14.4 0-19.9L889 349.8c-5.7-5.7-6.2-15-0.8-21 5.8-6.4 15.7-6.6 21.7-0.5l29.5 29.5c17.2 17.2 17.2 45.1 0 62.4L728.5 631c-6.1 6-15.9 5.8-21.7-0.5z" fill="#50E6CC" p-id="19750"></path><path d="M171.716 632.455l383.39-383.39L791.489 485.45 408.1 868.839z" fill="#FDF17F" p-id="19751"></path><path d="M791.6 485.4L555.2 249l125.9-125.9c40.7-40.7 106.6-40.7 147.3 0l89.1 89.1c40.7 40.7 40.7 106.6 0 147.3L791.6 485.4zM408.1 868.8L223 906.9l-89.3-89.3 38-185.2z" fill="#8ADCFF" p-id="19752"></path><path d="M791.5 485.4L408.1 868.8 367.3 828h0.1L355 815.7l383.4-383.4 12.4 12.4h-0.1z" fill="#FAD672" p-id="19753"></path><path d="M921.9 355.1L791.6 485.4l-53.2-53.2 130.3-130.3c38.2-38.2 38.2-100.2 0-138.4l53.2 53.2c38.3 38.2 38.3 100.2 0 138.4zM408.1 868.8L223 906.9l-53.2-53.2 185.3-38z" fill="#46CDFB" p-id="19754"></path><path d="M265.323 538.834l203.22-203.22L585.71 452.78 382.49 656z" fill="#F77490" p-id="19755"></path><path d="M946.5 350.7l-5.2-5.2c10.9-17.8 16.8-38.3 16.8-59.6 0-30.5-11.9-59.1-33.5-80.7L835.5 116c-44.5-44.5-117-44.5-161.5 0L548.4 241.6c-0.1 0.1-0.3 0.2-0.4 0.4l-85.9 85.9c-0.2 0.2-0.5 0.4-0.7 0.6L258.2 531.8c-0.2 0.2-0.4 0.5-0.6 0.7l-92.2 92.2c-1.7 1.4-2.9 3.4-3.4 5.7l-38 185.2c-0.7 3.3 0.3 6.7 2.7 9.1l2.8 2.8-58.1 58.1c-9.5 9.5-12.3 23.2-7.1 35.6 5.1 12.4 16.7 20.2 30.2 20.2h85.8c2.7 0 5.2-1.1 7.1-2.9l26.6-26.6 2.1 2.1c1.9 1.9 4.4 2.9 7.1 2.9 0.7 0 1.3-0.1 2-0.2l184.6-38c2.1-0.3 4.1-1.3 5.6-2.8l382.8-382.8c0.2-0.2 0.5-0.4 0.7-0.7L908.1 383l3 3c1 1 1.2 2.2 1.2 2.9 0 0.6-0.2 1.8-1.2 2.9L700.5 602.4c-9.6 9.6-10.1 24.8-1.2 34.8l0.1 0.1c4.6 5 11 7.9 17.8 8.1h0.6c6.6 0 12.9-2.6 17.7-7.3l210.9-210.8c21.1-21.2 21.1-55.5 0.1-76.6zM688.2 130.2c17.8-17.8 41.4-27.6 66.6-27.6s48.8 9.8 66.6 27.6l89.1 89.1c17.8 17.8 27.6 41.4 27.6 66.6 0 19.9-6.1 38.8-17.5 54.6-0.2 0.3-0.4 0.5-0.6 0.8-2.9 3.9-6 7.6-9.5 11.1L791.6 471.3 569.3 249l118.9-118.8zM468.5 349.8l103 103-189.1 189.1-103-103 189.1-189.1zM176.1 921.4H94.4c-7.9 0-10.9-6-11.7-7.8-0.8-1.8-2.8-8.3 2.8-13.8l58.1-58.1 56.1 56.1-23.6 23.6z m-25.4-101l-6.1-6.1 33.2-161.7 210.1 210.1L226.3 896l-75.6-75.6z m257.4 34.3L185.9 632.4l79.4-79.4 110.1 110.1c2 2 4.5 2.9 7.1 2.9s5.1-1 7.1-2.9l203.2-203.2c3.9-3.9 3.9-10.2 0-14.1L482.7 335.6l72.4-72.4 222.2 222.2-369.2 369.3z m524.2-441.6L721.5 623.9c-1.4 1.3-2.9 1.5-3.7 1.5-0.8 0-2.3-0.3-3.5-1.6-1.7-2-1.5-5.2 0.5-7.2L925.3 406c9.4-9.4 9.4-24.7 0-34l-3-3 2.3-2.3c1.6-1.6 3.1-3.2 4.6-4.9l3.2 3.2c13.2 13.1 13.2 34.8-0.1 48.1z" fill="#00435B" p-id="19756"></path></svg>